<svg width="3000" height="3000" viewBox="0 0 3000 3000" fill="none" xmlns="http://www.w3.org/2000/svg">
<rect width="3000" height="3000" rx="120" fill="#1A1B26"/>
<path d="M214.84 231.66L191.6 191.06H205.74L228.98 231.66H214.84ZM200 224.24C192.067 224.24 185.3 222.233 179.7 218.22C174.193 214.207 169.993 208.327 167.1 200.58C164.207 192.833 162.76 183.453 162.76 172.44C162.76 161.24 164.207 151.767 167.1 144.02C169.993 136.273 174.193 130.393 179.7 126.38C185.3 122.367 192.067 120.36 200 120.36C207.933 120.36 214.653 122.367 220.16 126.38C225.76 130.393 230.007 136.273 232.9 144.02C235.793 151.767 237.24 161.24 237.24 172.44C237.24 183.453 235.793 192.833 232.9 200.58C230.007 208.327 225.76 214.207 220.16 218.22C214.653 222.233 207.933 224.24 200 224.24ZM200 208.56C204.2 208.56 207.747 207.253 210.64 204.64C213.533 202.027 215.68 198.06 217.08 192.74C218.573 187.327 219.32 180.56 219.32 172.44C219.32 164.32 218.573 157.553 217.08 152.14C215.68 146.727 213.533 142.713 210.64 140.1C207.747 137.393 204.2 136.04 200 136.04C195.8 136.04 192.253 137.393 189.36 140.1C186.467 142.713 184.273 146.727 182.78 152.14C181.38 157.553 180.68 164.32 180.68 172.44C180.68 180.56 181.38 187.327 182.78 192.74C184.273 198.06 186.467 202.027 189.36 204.64C192.253 207.253 195.8 208.56 200 208.56ZM276.385 223.68C269.199 223.68 263.505 221.3 259.305 216.54C255.199 211.687 253.145 204.827 253.145 195.96V147.24H269.665V191.62C269.665 197.873 270.692 202.447 272.745 205.34C274.892 208.14 278.112 209.54 282.405 209.54C286.885 209.54 290.525 207.953 293.325 204.78C296.219 201.513 297.665 196.94 297.665 191.06V147.24H314.325V222H298.925L298.645 201.42L300.745 202.12C299.532 209.027 296.825 214.347 292.625 218.08C288.425 221.813 283.012 223.68 276.385 223.68ZM369.431 223.68C362.337 223.68 356.131 222.047 350.811 218.78C345.491 215.513 341.337 210.987 338.351 205.2C335.364 199.32 333.871 192.46 333.871 184.62C333.871 176.78 335.364 169.967 338.351 164.18C341.337 158.3 345.491 153.727 350.811 150.46C356.131 147.193 362.337 145.56 369.431 145.56C375.217 145.56 380.397 146.68 384.971 148.92C389.637 151.16 393.464 154.38 396.451 158.58C399.531 162.687 401.491 167.587 402.331 173.28L385.671 174.26C384.644 169.78 382.731 166.373 379.931 164.04C377.131 161.613 373.677 160.4 369.571 160.4C363.784 160.4 359.257 162.593 355.991 166.98C352.724 171.273 351.091 177.153 351.091 184.62C351.091 192.087 352.724 198.013 355.991 202.4C359.257 206.693 363.784 208.84 369.571 208.84C373.677 208.84 377.177 207.58 380.071 205.06C383.057 202.54 385.064 198.853 386.091 194L402.751 194.98C401.817 200.767 399.811 205.807 396.731 210.1C393.744 214.393 389.871 217.753 385.111 220.18C380.444 222.513 375.217 223.68 369.431 223.68ZM448.476 222V147.24H464.996V222H448.476ZM419.916 222V208.56H489.356V222H419.916ZM421.316 160.68V147.24H462.616V160.68H421.316ZM447.776 137.3V121.62H464.576V137.3H447.776ZM503.581 222V122.6H520.101V182.38L551.181 147.24H571.481L542.781 179.16L572.741 222H553.561L531.861 189.94L520.101 202.4V222H503.581ZM670.912 222V122.6H689.532L719.632 194V122.6H736.432V222H717.812L687.712 150.6V222H670.912ZM787.617 223.68C780.617 223.68 774.457 222.093 769.137 218.92C763.911 215.747 759.851 211.22 756.957 205.34C754.064 199.46 752.617 192.553 752.617 184.62C752.617 176.687 754.064 169.78 756.957 163.9C759.851 158.02 763.911 153.493 769.137 150.32C774.457 147.147 780.617 145.56 787.617 145.56C794.617 145.56 800.731 147.147 805.957 150.32C811.277 153.493 815.384 158.02 818.277 163.9C821.171 169.687 822.617 176.593 822.617 184.62C822.617 192.553 821.171 199.46 818.277 205.34C815.384 211.22 811.277 215.747 805.957 218.92C800.731 222.093 794.617 223.68 787.617 223.68ZM787.617 208.84C793.311 208.84 797.697 206.74 800.777 202.54C803.857 198.247 805.397 192.273 805.397 184.62C805.397 176.967 803.857 171.04 800.777 166.84C797.697 162.547 793.311 160.4 787.617 160.4C781.924 160.4 777.537 162.547 774.457 166.84C771.377 171.04 769.837 176.967 769.837 184.62C769.837 192.273 771.377 198.247 774.457 202.54C777.537 206.74 781.924 208.84 787.617 208.84ZM882.063 222C874.036 222 868.109 220.18 864.283 216.54C860.456 212.807 858.543 207.16 858.543 199.6V129.74H875.063V198.34C875.063 201.793 875.903 204.36 877.583 206.04C879.263 207.72 881.736 208.56 885.003 208.56H903.482V222H882.063ZM836.003 160.68V147.24H903.482V160.68H836.003ZM956.208 223.68C949.208 223.68 943.048 222.093 937.728 218.92C932.501 215.747 928.441 211.22 925.548 205.34C922.654 199.46 921.208 192.553 921.208 184.62C921.208 176.78 922.654 169.967 925.548 164.18C928.441 158.3 932.454 153.727 937.588 150.46C942.814 147.193 948.928 145.56 955.928 145.56C962.648 145.56 968.574 147.147 973.708 150.32C978.934 153.493 982.994 158.02 985.888 163.9C988.874 169.78 990.368 176.78 990.368 184.9V189.24H938.288C938.754 195.587 940.574 200.44 943.748 203.8C947.014 207.16 951.261 208.84 956.488 208.84C960.501 208.84 963.814 207.907 966.428 206.04C969.134 204.08 971.001 201.56 972.028 198.48L988.968 199.74C986.634 207.207 982.668 213.087 977.068 217.38C971.468 221.58 964.514 223.68 956.208 223.68ZM938.428 177.2H972.448C971.981 171.507 970.254 167.307 967.268 164.6C964.281 161.8 960.454 160.4 955.788 160.4C951.121 160.4 947.248 161.847 944.168 164.74C941.181 167.54 939.268 171.693 938.428 177.2ZM1040.43 223.68C1033.43 223.68 1027.55 222.56 1022.79 220.32C1018.03 218.08 1014.35 215.047 1011.73 211.22C1009.12 207.393 1007.63 203.147 1007.25 198.48L1023.77 197.78C1024.52 201.327 1026.25 204.173 1028.95 206.32C1031.66 208.373 1035.53 209.4 1040.57 209.4C1045.24 209.4 1048.74 208.793 1051.07 207.58C1053.5 206.273 1054.71 204.36 1054.71 201.84C1054.71 200.253 1054.29 198.9 1053.45 197.78C1052.71 196.66 1051.17 195.727 1048.83 194.98C1046.5 194.14 1043.05 193.253 1038.47 192.32C1031.01 190.827 1025.13 189.1 1020.83 187.14C1016.54 185.18 1013.46 182.707 1011.59 179.72C1009.82 176.733 1008.93 173.093 1008.93 168.8C1008.93 164.413 1010.05 160.493 1012.29 157.04C1014.53 153.493 1017.85 150.693 1022.23 148.64C1026.71 146.587 1032.22 145.56 1038.75 145.56C1045.85 145.56 1051.63 146.727 1056.11 149.06C1060.59 151.393 1064 154.427 1066.33 158.16C1068.76 161.893 1070.25 165.907 1070.81 170.2L1054.15 171.04C1053.69 168.893 1052.8 166.98 1051.49 165.3C1050.19 163.62 1048.46 162.313 1046.31 161.38C1044.17 160.353 1041.69 159.84 1038.89 159.84C1034.32 159.84 1031.01 160.727 1028.95 162.5C1026.9 164.273 1025.87 166.373 1025.87 168.8C1025.87 170.76 1026.39 172.393 1027.41 173.7C1028.53 174.913 1030.35 175.94 1032.87 176.78C1035.39 177.62 1038.89 178.46 1043.37 179.3C1050.75 180.7 1056.49 182.333 1060.59 184.2C1064.7 186.067 1067.55 188.4 1069.13 191.2C1070.81 194 1071.65 197.5 1071.65 201.7C1071.65 206.273 1070.39 210.193 1067.87 213.46C1065.35 216.727 1061.76 219.247 1057.09 221.02C1052.43 222.793 1046.87 223.68 1040.43 223.68Z" fill="white"/>
<path d="M158 524.4H278V404.4H158V524.4ZM398.673 524.28L378.753 489.48H390.873L410.793 524.28H398.673ZM385.953 517.92C379.153 517.92 373.353 516.2 368.553 512.76C363.833 509.32 360.233 504.28 357.753 497.64C355.273 491 354.033 482.96 354.033 473.52C354.033 463.92 355.273 455.8 357.753 449.16C360.233 442.52 363.833 437.48 368.553 434.04C373.353 430.6 379.153 428.88 385.953 428.88C392.753 428.88 398.513 430.6 403.233 434.04C408.033 437.48 411.673 442.52 414.153 449.16C416.633 455.8 417.873 463.92 417.873 473.52C417.873 482.96 416.633 491 414.153 497.64C411.673 504.28 408.033 509.32 403.233 512.76C398.513 516.2 392.753 517.92 385.953 517.92ZM385.953 504.48C389.553 504.48 392.593 503.36 395.073 501.12C397.553 498.88 399.393 495.48 400.593 490.92C401.873 486.28 402.513 480.48 402.513 473.52C402.513 466.56 401.873 460.76 400.593 456.12C399.393 451.48 397.553 448.04 395.073 445.8C392.593 443.48 389.553 442.32 385.953 442.32C382.353 442.32 379.313 443.48 376.833 445.8C374.353 448.04 372.473 451.48 371.193 456.12C369.993 460.76 369.393 466.56 369.393 473.52C369.393 480.48 369.993 486.28 371.193 490.92C372.473 495.48 374.353 498.88 376.833 501.12C379.313 503.36 382.353 504.48 385.953 504.48ZM451.426 517.44C445.266 517.44 440.386 515.4 436.786 511.32C433.266 507.16 431.506 501.28 431.506 493.68V451.92H445.666V489.96C445.666 495.32 446.546 499.24 448.306 501.72C450.146 504.12 452.906 505.32 456.586 505.32C460.426 505.32 463.546 503.96 465.946 501.24C468.426 498.44 469.666 494.52 469.666 489.48V451.92H483.946V516H470.746L470.506 498.36L472.306 498.96C471.266 504.88 468.946 509.44 465.346 512.64C461.746 515.84 457.106 517.44 451.426 517.44ZM526.979 516V451.92H541.139V516H526.979ZM502.499 516V504.48H562.019V516H502.499ZM503.699 463.44V451.92H539.099V463.44H503.699ZM526.379 443.4V429.96H540.779V443.4H526.379ZM603.133 517.44C597.053 517.44 591.733 516.04 587.173 513.24C582.613 510.44 579.053 506.56 576.493 501.6C573.933 496.56 572.653 490.68 572.653 483.96C572.653 477.24 573.933 471.4 576.493 466.44C579.053 461.4 582.613 457.48 587.173 454.68C591.733 451.88 597.053 450.48 603.133 450.48C608.093 450.48 612.533 451.44 616.453 453.36C620.453 455.28 623.733 458.04 626.293 461.64C628.933 465.16 630.613 469.36 631.333 474.24L617.053 475.08C616.173 471.24 614.533 468.32 612.133 466.32C609.733 464.24 606.773 463.2 603.253 463.2C598.293 463.2 594.413 465.08 591.613 468.84C588.813 472.52 587.413 477.56 587.413 483.96C587.413 490.36 588.813 495.44 591.613 499.2C594.413 502.88 598.293 504.72 603.253 504.72C606.773 504.72 609.773 503.64 612.253 501.48C614.813 499.32 616.533 496.16 617.413 492L631.693 492.84C630.893 497.8 629.173 502.12 626.533 505.8C623.973 509.48 620.653 512.36 616.573 514.44C612.573 516.44 608.093 517.44 603.133 517.44ZM646.166 516V430.8H660.326V482.04L686.966 451.92H704.366L679.766 479.28L705.446 516H689.006L670.406 488.52L660.326 499.2V516H646.166ZM789.592 516V430.8H805.552L831.352 492V430.8H845.752V516H829.792L803.992 454.8V516H789.592ZM889.625 517.44C883.625 517.44 878.345 516.08 873.785 513.36C869.305 510.64 865.825 506.76 863.345 501.72C860.865 496.68 859.625 490.76 859.625 483.96C859.625 477.16 860.865 471.24 863.345 466.2C865.825 461.16 869.305 457.28 873.785 454.56C878.345 451.84 883.625 450.48 889.625 450.48C895.625 450.48 900.865 451.84 905.345 454.56C909.905 457.28 913.425 461.16 915.905 466.2C918.385 471.16 919.625 477.08 919.625 483.96C919.625 490.76 918.385 496.68 915.905 501.72C913.425 506.76 909.905 510.64 905.345 513.36C900.865 516.08 895.625 517.44 889.625 517.44ZM889.625 504.72C894.505 504.72 898.265 502.92 900.905 499.32C903.545 495.64 904.865 490.52 904.865 483.96C904.865 477.4 903.545 472.32 900.905 468.72C898.265 465.04 894.505 463.2 889.625 463.2C884.745 463.2 880.985 465.04 878.345 468.72C875.705 472.32 874.385 477.4 874.385 483.96C874.385 490.52 875.705 495.64 878.345 499.32C880.985 502.92 884.745 504.72 889.625 504.72ZM970.578 516C963.698 516 958.618 514.44 955.338 511.32C952.058 508.12 950.418 503.28 950.418 496.8V436.92H964.578V495.72C964.578 498.68 965.298 500.88 966.738 502.32C968.178 503.76 970.298 504.48 973.098 504.48H988.938V516H970.578ZM931.098 463.44V451.92H988.938V463.44H931.098ZM1034.13 517.44C1028.13 517.44 1022.85 516.08 1018.29 513.36C1013.81 510.64 1010.33 506.76 1007.85 501.72C1005.37 496.68 1004.13 490.76 1004.13 483.96C1004.13 477.24 1005.37 471.4 1007.85 466.44C1010.33 461.4 1013.77 457.48 1018.17 454.68C1022.65 451.88 1027.89 450.48 1033.89 450.48C1039.65 450.48 1044.73 451.84 1049.13 454.56C1053.61 457.28 1057.09 461.16 1059.57 466.2C1062.13 471.24 1063.41 477.24 1063.41 484.2V487.92H1018.77C1019.17 493.36 1020.73 497.52 1023.45 500.4C1026.25 503.28 1029.89 504.72 1034.37 504.72C1037.81 504.72 1040.65 503.92 1042.89 502.32C1045.21 500.64 1046.81 498.48 1047.69 495.84L1062.21 496.92C1060.21 503.32 1056.81 508.36 1052.01 512.04C1047.21 515.64 1041.25 517.44 1034.13 517.44ZM1018.89 477.6H1048.05C1047.65 472.72 1046.17 469.12 1043.61 466.8C1041.05 464.4 1037.77 463.2 1033.77 463.2C1029.77 463.2 1026.45 464.44 1023.81 466.92C1021.25 469.32 1019.61 472.88 1018.89 477.6ZM210.92 685.2H177.08V582H210.92V594.24H191.72V672.96H210.92V685.2ZM320.986 685.2V672.96H340.186V594.24H320.986V582H354.826V685.2H320.986ZM474.373 672V600.48H450.613V586.8H513.013V600.48H489.253V672H474.373ZM544.886 673.44C540.886 673.44 537.286 672.72 534.086 671.28C530.886 669.84 528.326 667.8 526.406 665.16C524.486 662.44 523.526 659.24 523.526 655.56C523.526 650.12 525.206 645.92 528.566 642.96C532.006 639.92 536.926 637.72 543.326 636.36L563.366 632.16C563.366 627.68 562.406 624.28 560.486 621.96C558.646 619.56 555.726 618.36 551.726 618.36C548.046 618.36 545.206 619.24 543.206 621C541.206 622.76 539.886 625.08 539.246 627.96L524.486 627.12C525.686 620.96 528.646 616 533.366 612.24C538.166 608.4 544.206 606.48 551.486 606.48C560.206 606.48 566.726 608.8 571.046 613.44C575.366 618.08 577.526 624.56 577.526 632.88V656.76C577.526 658.36 577.846 659.48 578.486 660.12C579.126 660.68 580.006 660.96 581.126 660.96H584.246V672C583.766 672.08 582.966 672.16 581.846 672.24C580.806 672.4 579.726 672.48 578.606 672.48C575.566 672.48 572.966 671.96 570.806 670.92C568.726 669.88 567.126 668.32 566.006 666.24C564.886 664.08 564.286 661.44 564.206 658.32H566.006C565.606 661.2 564.446 663.8 562.526 666.12C560.606 668.36 558.126 670.16 555.086 671.52C552.126 672.8 548.726 673.44 544.886 673.44ZM547.406 662.4C550.846 662.4 553.766 661.8 556.166 660.6C558.566 659.32 560.366 657.56 561.566 655.32C562.766 653 563.366 650.24 563.366 647.04V642.72L547.406 646.08C543.966 646.72 541.566 647.76 540.206 649.2C538.926 650.56 538.286 652.4 538.286 654.72C538.286 657.12 539.086 659 540.686 660.36C542.286 661.72 544.526 662.4 547.406 662.4ZM626.559 673.44C620.559 673.44 615.519 672.48 611.439 670.56C607.359 668.64 604.199 666.04 601.959 662.76C599.719 659.48 598.439 655.84 598.119 651.84L612.279 651.24C612.919 654.28 614.399 656.72 616.719 658.56C619.039 660.32 622.359 661.2 626.679 661.2C630.679 661.2 633.679 660.68 635.679 659.64C637.759 658.52 638.799 656.88 638.799 654.72C638.799 653.36 638.439 652.2 637.719 651.24C637.079 650.28 635.759 649.48 633.759 648.84C631.759 648.12 628.799 647.36 624.879 646.56C618.479 645.28 613.439 643.8 609.759 642.12C606.079 640.44 603.439 638.32 601.839 635.76C600.319 633.2 599.559 630.08 599.559 626.4C599.559 622.64 600.519 619.28 602.439 616.32C604.359 613.28 607.199 610.88 610.959 609.12C614.799 607.36 619.519 606.48 625.119 606.48C631.199 606.48 636.159 607.48 639.999 609.48C643.839 611.48 646.759 614.08 648.759 617.28C650.839 620.48 652.119 623.92 652.599 627.6L638.319 628.32C637.919 626.48 637.159 624.84 636.039 623.4C634.919 621.96 633.439 620.84 631.599 620.04C629.759 619.16 627.639 618.72 625.239 618.72C621.319 618.72 618.479 619.48 616.719 621C614.959 622.52 614.079 624.32 614.079 626.4C614.079 628.08 614.519 629.48 615.399 630.6C616.359 631.64 617.919 632.52 620.079 633.24C622.239 633.96 625.239 634.68 629.079 635.4C635.399 636.6 640.319 638 643.839 639.6C647.359 641.2 649.799 643.2 651.159 645.6C652.599 648 653.319 651 653.319 654.6C653.319 658.52 652.239 661.88 650.079 664.68C647.919 667.48 644.839 669.64 640.839 671.16C636.839 672.68 632.079 673.44 626.559 673.44ZM670.072 672V586.8H684.232V638.04L710.872 607.92H728.272L703.672 635.28L729.352 672H712.912L694.312 644.52L684.232 655.2V672H670.072ZM837.018 672V613.68H815.658V601.2H825.738C828.938 601.2 831.498 600.76 833.418 599.88C835.418 598.92 836.858 597.4 837.738 595.32C838.698 593.16 839.178 590.32 839.178 586.8H851.898V672H837.018ZM811.818 672V658.32H871.338V672H811.818ZM210.92 841.2H177.08V738H210.92V750.24H191.72V828.96H210.92V841.2ZM234.753 828L257.913 795.12L235.953 763.92H251.553L266.073 785.4L280.233 763.92H296.073L274.233 795.36L297.153 828H281.433L266.073 804.84L250.593 828H234.753ZM320.986 841.2V828.96H340.186V750.24H320.986V738H354.826V841.2H320.986ZM474.373 828V756.48H450.613V742.8H513.013V756.48H489.253V828H474.373ZM544.886 829.44C540.886 829.44 537.286 828.72 534.086 827.28C530.886 825.84 528.326 823.8 526.406 821.16C524.486 818.44 523.526 815.24 523.526 811.56C523.526 806.12 525.206 801.92 528.566 798.96C532.006 795.92 536.926 793.72 543.326 792.36L563.366 788.16C563.366 783.68 562.406 780.28 560.486 777.96C558.646 775.56 555.726 774.36 551.726 774.36C548.046 774.36 545.206 775.24 543.206 777C541.206 778.76 539.886 781.08 539.246 783.96L524.486 783.12C525.686 776.96 528.646 772 533.366 768.24C538.166 764.4 544.206 762.48 551.486 762.48C560.206 762.48 566.726 764.8 571.046 769.44C575.366 774.08 577.526 780.56 577.526 788.88V812.76C577.526 814.36 577.846 815.48 578.486 816.12C579.126 816.68 580.006 816.96 581.126 816.96H584.246V828C583.766 828.08 582.966 828.16 581.846 828.24C580.806 828.4 579.726 828.48 578.606 828.48C575.566 828.48 572.966 827.96 570.806 826.92C568.726 825.88 567.126 824.32 566.006 822.24C564.886 820.08 564.286 817.44 564.206 814.32H566.006C565.606 817.2 564.446 819.8 562.526 822.12C560.606 824.36 558.126 826.16 555.086 827.52C552.126 828.8 548.726 829.44 544.886 829.44ZM547.406 818.4C550.846 818.4 553.766 817.8 556.166 816.6C558.566 815.32 560.366 813.56 561.566 811.32C562.766 809 563.366 806.24 563.366 803.04V798.72L547.406 802.08C543.966 802.72 541.566 803.76 540.206 805.2C538.926 806.56 538.286 808.4 538.286 810.72C538.286 813.12 539.086 815 540.686 816.36C542.286 817.72 544.526 818.4 547.406 818.4ZM626.559 829.44C620.559 829.44 615.519 828.48 611.439 826.56C607.359 824.64 604.199 822.04 601.959 818.76C599.719 815.48 598.439 811.84 598.119 807.84L612.279 807.24C612.919 810.28 614.399 812.72 616.719 814.56C619.039 816.32 622.359 817.2 626.679 817.2C630.679 817.2 633.679 816.68 635.679 815.64C637.759 814.52 638.799 812.88 638.799 810.72C638.799 809.36 638.439 808.2 637.719 807.24C637.079 806.28 635.759 805.48 633.759 804.84C631.759 804.12 628.799 803.36 624.879 802.56C618.479 801.28 613.439 799.8 609.759 798.12C606.079 796.44 603.439 794.32 601.839 791.76C600.319 789.2 599.559 786.08 599.559 782.4C599.559 778.64 600.519 775.28 602.439 772.32C604.359 769.28 607.199 766.88 610.959 765.12C614.799 763.36 619.519 762.48 625.119 762.48C631.199 762.48 636.159 763.48 639.999 765.48C643.839 767.48 646.759 770.08 648.759 773.28C650.839 776.48 652.119 779.92 652.599 783.6L638.319 784.32C637.919 782.48 637.159 780.84 636.039 779.4C634.919 777.96 633.439 776.84 631.599 776.04C629.759 775.16 627.639 774.72 625.239 774.72C621.319 774.72 618.479 775.48 616.719 777C614.959 778.52 614.079 780.32 614.079 782.4C614.079 784.08 614.519 785.48 615.399 786.6C616.359 787.64 617.919 788.52 620.079 789.24C622.239 789.96 625.239 790.68 629.079 791.4C635.399 792.6 640.319 794 643.839 795.6C647.359 797.2 649.799 799.2 651.159 801.6C652.599 804 653.319 807 653.319 810.6C653.319 814.52 652.239 817.88 650.079 820.68C647.919 823.48 644.839 825.64 640.839 827.16C636.839 828.68 632.079 829.44 626.559 829.44ZM670.072 828V742.8H684.232V794.04L710.872 763.92H728.272L703.672 791.28L729.352 828H712.912L694.312 800.52L684.232 811.2V828H670.072ZM811.098 828C811.098 821.36 812.018 815.52 813.858 810.48C815.698 805.36 818.898 800.64 823.458 796.32C828.018 791.92 834.378 787.6 842.538 783.36C845.738 781.68 848.378 780.08 850.458 778.56C852.538 777.04 854.098 775.36 855.138 773.52C856.178 771.68 856.698 769.4 856.698 766.68C856.698 764.2 856.178 762.04 855.138 760.2C854.178 758.36 852.698 756.92 850.698 755.88C848.698 754.84 846.218 754.32 843.258 754.32C838.378 754.32 834.618 755.64 831.978 758.28C829.338 760.92 827.658 764.72 826.938 769.68L811.458 768.84C812.338 760.28 815.498 753.48 820.938 748.44C826.378 743.4 833.898 740.88 843.498 740.88C849.658 740.88 854.858 741.92 859.098 744C863.338 746.08 866.538 749.04 868.698 752.88C870.858 756.64 871.938 761 871.938 765.96C871.938 770.44 871.218 774.32 869.778 777.6C868.338 780.8 865.938 783.8 862.578 786.6C859.298 789.32 854.818 792.2 849.138 795.24C844.338 797.8 840.418 800.24 837.378 802.56C834.418 804.8 832.218 806.92 830.778 808.92C829.338 810.84 828.538 812.64 828.378 814.32H872.058V828H811.098ZM194.48 1141.92C187.52 1141.92 181.64 1140.12 176.84 1136.52C172.04 1132.92 168.36 1127.8 165.8 1121.16C163.32 1114.52 162.08 1106.64 162.08 1097.52C162.08 1088.32 163.32 1080.4 165.8 1073.76C168.36 1067.12 172.04 1062 176.84 1058.4C181.64 1054.72 187.52 1052.88 194.48 1052.88C202.48 1052.88 209.16 1055.52 214.52 1060.8C219.88 1066.08 223.32 1073.56 224.84 1083.24L209.6 1083.96C208.56 1078.2 206.68 1073.84 203.96 1070.88C201.32 1067.84 198.16 1066.32 194.48 1066.32C190.72 1066.32 187.56 1067.56 185 1070.04C182.52 1072.44 180.64 1075.96 179.36 1080.6C178.08 1085.24 177.44 1090.88 177.44 1097.52C177.44 1104.08 178.08 1109.68 179.36 1114.32C180.64 1118.96 182.52 1122.48 185 1124.88C187.56 1127.28 190.72 1128.48 194.48 1128.48C198.32 1128.48 201.64 1126.88 204.44 1123.68C207.24 1120.4 209.12 1115.64 210.08 1109.4L225.32 1110C223.88 1120.08 220.44 1127.92 215 1133.52C209.64 1139.12 202.8 1141.92 194.48 1141.92ZM260.553 1140V1074C260.553 1071.6 259.873 1069.72 258.513 1068.36C257.233 1067 255.353 1066.32 252.873 1066.32H238.593V1054.8H255.033C261.513 1054.8 266.393 1056.48 269.673 1059.84C273.033 1063.12 274.713 1068.04 274.713 1074.6V1140H260.553ZM236.193 1140V1128.48H295.713V1140H236.193ZM335.026 1140V1075.92H349.186V1140H335.026ZM310.546 1140V1128.48H370.066V1140H310.546ZM311.746 1087.44V1075.92H347.146V1087.44H311.746ZM334.426 1067.4V1053.96H348.826V1067.4H334.426ZM411.179 1141.44C405.099 1141.44 399.779 1140.04 395.219 1137.24C390.659 1134.44 387.099 1130.56 384.539 1125.6C381.979 1120.56 380.699 1114.68 380.699 1107.96C380.699 1101.24 381.979 1095.4 384.539 1090.44C387.099 1085.4 390.659 1081.48 395.219 1078.68C399.779 1075.88 405.099 1074.48 411.179 1074.48C416.139 1074.48 420.579 1075.44 424.499 1077.36C428.499 1079.28 431.779 1082.04 434.339 1085.64C436.979 1089.16 438.659 1093.36 439.379 1098.24L425.099 1099.08C424.219 1095.24 422.579 1092.32 420.179 1090.32C417.779 1088.24 414.819 1087.2 411.299 1087.2C406.339 1087.2 402.459 1089.08 399.659 1092.84C396.859 1096.52 395.459 1101.56 395.459 1107.96C395.459 1114.36 396.859 1119.44 399.659 1123.2C402.459 1126.88 406.339 1128.72 411.299 1128.72C414.819 1128.72 417.819 1127.64 420.299 1125.48C422.859 1123.32 424.579 1120.16 425.459 1116L439.739 1116.84C438.939 1121.8 437.219 1126.12 434.579 1129.8C432.019 1133.48 428.699 1136.36 424.619 1138.44C420.619 1140.44 416.139 1141.44 411.179 1141.44ZM454.213 1140V1054.8H468.373V1106.04L495.013 1075.92H512.413L487.813 1103.28L513.493 1140H497.053L478.453 1112.52L468.373 1123.2V1140H454.213ZM634.719 1140C627.839 1140 622.759 1138.44 619.479 1135.32C616.199 1132.12 614.559 1127.28 614.559 1120.8V1060.92H628.719V1119.72C628.719 1122.68 629.439 1124.88 630.879 1126.32C632.319 1127.76 634.439 1128.48 637.239 1128.48H653.079V1140H634.719ZM595.239 1087.44V1075.92H653.079V1087.44H595.239ZM671.992 1140V1054.8H686.152V1089.72L684.832 1088.88C685.792 1085.52 687.192 1082.8 689.032 1080.72C690.952 1078.56 693.232 1077 695.872 1076.04C698.512 1075 701.472 1074.48 704.752 1074.48C709.152 1074.48 712.832 1075.48 715.792 1077.48C718.832 1079.48 721.072 1082.32 722.512 1086C724.032 1089.6 724.792 1093.84 724.792 1098.72V1140H710.632V1101.96C710.632 1096.52 709.712 1092.6 707.872 1090.2C706.032 1087.8 703.352 1086.6 699.832 1086.6C695.752 1086.6 692.432 1087.96 689.872 1090.68C687.392 1093.4 686.152 1097.4 686.152 1102.68V1140H671.992ZM770.225 1141.44C764.225 1141.44 758.945 1140.08 754.385 1137.36C749.905 1134.64 746.425 1130.76 743.945 1125.72C741.465 1120.68 740.225 1114.76 740.225 1107.96C740.225 1101.24 741.465 1095.4 743.945 1090.44C746.425 1085.4 749.865 1081.48 754.265 1078.68C758.745 1075.88 763.985 1074.48 769.985 1074.48C775.745 1074.48 780.825 1075.84 785.225 1078.56C789.705 1081.28 793.185 1085.16 795.665 1090.2C798.225 1095.24 799.505 1101.24 799.505 1108.2V1111.92H754.865C755.265 1117.36 756.825 1121.52 759.545 1124.4C762.345 1127.28 765.985 1128.72 770.465 1128.72C773.905 1128.72 776.745 1127.92 778.985 1126.32C781.305 1124.64 782.905 1122.48 783.785 1119.84L798.305 1120.92C796.305 1127.32 792.905 1132.36 788.105 1136.04C783.305 1139.64 777.345 1141.44 770.225 1141.44ZM754.985 1101.6H784.145C783.745 1096.72 782.265 1093.12 779.705 1090.8C777.145 1088.4 773.865 1087.2 769.865 1087.2C765.865 1087.2 762.545 1088.44 759.905 1090.92C757.345 1093.32 755.705 1096.88 754.985 1101.6ZM885.211 1158V1075.92H898.771L899.131 1090.56L897.691 1089.84C899.291 1084.88 901.851 1081.08 905.371 1078.44C908.971 1075.8 913.291 1074.48 918.331 1074.48C924.251 1074.48 929.131 1076 932.971 1079.04C936.891 1082.08 939.771 1086.12 941.611 1091.16C943.531 1096.2 944.491 1101.8 944.491 1107.96C944.491 1114.12 943.531 1119.72 941.611 1124.76C939.771 1129.8 936.891 1133.84 932.971 1136.88C929.131 1139.92 924.251 1141.44 918.331 1141.44C915.051 1141.44 912.011 1140.92 909.211 1139.88C906.491 1138.76 904.131 1137.2 902.131 1135.2C900.211 1133.12 898.771 1130.56 897.811 1127.52L899.371 1125.84V1158H885.211ZM914.731 1128.72C919.451 1128.72 923.131 1127 925.771 1123.56C928.411 1120.04 929.731 1114.84 929.731 1107.96C929.731 1101.08 928.411 1095.92 925.771 1092.48C923.131 1088.96 919.451 1087.2 914.731 1087.2C911.691 1087.2 909.011 1087.96 906.691 1089.48C904.451 1091 902.651 1093.32 901.291 1096.44C900.011 1099.48 899.371 1103.32 899.371 1107.96C899.371 1112.6 900.011 1116.48 901.291 1119.6C902.571 1122.64 904.371 1124.92 906.691 1126.44C909.011 1127.96 911.691 1128.72 914.731 1128.72ZM986.084 1141.44C980.084 1141.44 974.804 1140.08 970.244 1137.36C965.764 1134.64 962.284 1130.76 959.804 1125.72C957.324 1120.68 956.084 1114.76 956.084 1107.96C956.084 1101.24 957.324 1095.4 959.804 1090.44C962.284 1085.4 965.724 1081.48 970.124 1078.68C974.604 1075.88 979.844 1074.48 985.844 1074.48C991.604 1074.48 996.684 1075.84 1001.08 1078.56C1005.56 1081.28 1009.04 1085.16 1011.52 1090.2C1014.08 1095.24 1015.36 1101.24 1015.36 1108.2V1111.92H970.724C971.124 1117.36 972.684 1121.52 975.404 1124.4C978.204 1127.28 981.844 1128.72 986.324 1128.72C989.764 1128.72 992.604 1127.92 994.844 1126.32C997.164 1124.64 998.764 1122.48 999.644 1119.84L1014.16 1120.92C1012.16 1127.32 1008.76 1132.36 1003.96 1136.04C999.164 1139.64 993.204 1141.44 986.084 1141.44ZM970.844 1101.6H1000C999.604 1096.72 998.124 1093.12 995.564 1090.8C993.004 1088.4 989.724 1087.2 985.724 1087.2C981.724 1087.2 978.404 1088.44 975.764 1090.92C973.204 1093.32 971.564 1096.88 970.844 1101.6ZM1030.56 1140V1075.92H1043.52L1044 1093.08L1042.56 1092.24C1043.28 1088.16 1044.64 1084.84 1046.64 1082.28C1048.64 1079.64 1051.08 1077.68 1053.96 1076.4C1056.92 1075.12 1060.12 1074.48 1063.56 1074.48C1068.28 1074.48 1072.16 1075.52 1075.2 1077.6C1078.24 1079.68 1080.52 1082.56 1082.04 1086.24C1083.56 1089.84 1084.32 1093.96 1084.32 1098.6V1140H1070.16V1101.96C1070.16 1096.84 1069.2 1093 1067.28 1090.44C1065.44 1087.88 1062.6 1086.6 1058.76 1086.6C1056.2 1086.6 1053.84 1087.2 1051.68 1088.4C1049.6 1089.6 1047.92 1091.4 1046.64 1093.8C1045.36 1096.12 1044.72 1099 1044.72 1102.44V1140H1030.56ZM1198.46 1140V1075.92H1212.62V1140H1198.46ZM1173.98 1140V1128.48H1233.5V1140H1173.98ZM1175.18 1087.44V1075.92H1210.58V1087.44H1175.18ZM1197.86 1067.4V1053.96H1212.26V1067.4H1197.86ZM1274.62 1141.44C1268.54 1141.44 1263.22 1140.04 1258.66 1137.24C1254.1 1134.44 1250.54 1130.56 1247.98 1125.6C1245.42 1120.56 1244.14 1114.68 1244.14 1107.96C1244.14 1101.24 1245.42 1095.4 1247.98 1090.44C1250.54 1085.4 1254.1 1081.48 1258.66 1078.68C1263.22 1075.88 1268.54 1074.48 1274.62 1074.48C1279.58 1074.48 1284.02 1075.44 1287.94 1077.36C1291.94 1079.28 1295.22 1082.04 1297.78 1085.64C1300.42 1089.16 1302.1 1093.36 1302.82 1098.24L1288.54 1099.08C1287.66 1095.24 1286.02 1092.32 1283.62 1090.32C1281.22 1088.24 1278.26 1087.2 1274.74 1087.2C1269.78 1087.2 1265.9 1089.08 1263.1 1092.84C1260.3 1096.52 1258.9 1101.56 1258.9 1107.96C1258.9 1114.36 1260.3 1119.44 1263.1 1123.2C1265.9 1126.88 1269.78 1128.72 1274.74 1128.72C1278.26 1128.72 1281.26 1127.64 1283.74 1125.48C1286.3 1123.32 1288.02 1120.16 1288.9 1116L1303.18 1116.84C1302.38 1121.8 1300.66 1126.12 1298.02 1129.8C1295.46 1133.48 1292.14 1136.36 1288.06 1138.44C1284.06 1140.44 1279.58 1141.44 1274.62 1141.44ZM1345.25 1141.44C1339.25 1141.44 1333.97 1140.08 1329.41 1137.36C1324.93 1134.64 1321.45 1130.76 1318.97 1125.72C1316.49 1120.68 1315.25 1114.76 1315.25 1107.96C1315.25 1101.16 1316.49 1095.24 1318.97 1090.2C1321.45 1085.16 1324.93 1081.28 1329.41 1078.56C1333.97 1075.84 1339.25 1074.48 1345.25 1074.48C1351.25 1074.48 1356.49 1075.84 1360.97 1078.56C1365.53 1081.28 1369.05 1085.16 1371.53 1090.2C1374.01 1095.16 1375.25 1101.08 1375.25 1107.96C1375.25 1114.76 1374.01 1120.68 1371.53 1125.72C1369.05 1130.76 1365.53 1134.64 1360.97 1137.36C1356.49 1140.08 1351.25 1141.44 1345.25 1141.44ZM1345.25 1128.72C1350.13 1128.72 1353.89 1126.92 1356.53 1123.32C1359.17 1119.64 1360.49 1114.52 1360.49 1107.96C1360.49 1101.4 1359.17 1096.32 1356.53 1092.72C1353.89 1089.04 1350.13 1087.2 1345.25 1087.2C1340.37 1087.2 1336.61 1089.04 1333.97 1092.72C1331.33 1096.32 1330.01 1101.4 1330.01 1107.96C1330.01 1114.52 1331.33 1119.64 1333.97 1123.32C1336.61 1126.92 1340.37 1128.72 1345.25 1128.72ZM1390.32 1140V1075.92H1403.28L1403.76 1093.08L1402.32 1092.24C1403.04 1088.16 1404.4 1084.84 1406.4 1082.28C1408.4 1079.64 1410.84 1077.68 1413.72 1076.4C1416.68 1075.12 1419.88 1074.48 1423.32 1074.48C1428.04 1074.48 1431.92 1075.52 1434.96 1077.6C1438 1079.68 1440.28 1082.56 1441.8 1086.24C1443.32 1089.84 1444.08 1093.96 1444.08 1098.6V1140H1429.92V1101.96C1429.92 1096.84 1428.96 1093 1427.04 1090.44C1425.2 1087.88 1422.36 1086.6 1418.52 1086.6C1415.96 1086.6 1413.6 1087.2 1411.44 1088.4C1409.36 1089.6 1407.68 1091.4 1406.4 1093.8C1405.12 1096.12 1404.48 1099 1404.48 1102.44V1140H1390.32ZM1570.11 1140C1563.23 1140 1558.15 1138.44 1554.87 1135.32C1551.59 1132.12 1549.95 1127.28 1549.95 1120.8V1060.92H1564.11V1119.72C1564.11 1122.68 1564.83 1124.88 1566.27 1126.32C1567.71 1127.76 1569.83 1128.48 1572.63 1128.48H1588.47V1140H1570.11ZM1530.63 1087.44V1075.92H1588.47V1087.44H1530.63ZM1633.06 1141.44C1627.06 1141.44 1621.78 1140.08 1617.22 1137.36C1612.74 1134.64 1609.26 1130.76 1606.78 1125.72C1604.3 1120.68 1603.06 1114.76 1603.06 1107.96C1603.06 1101.16 1604.3 1095.24 1606.78 1090.2C1609.26 1085.16 1612.74 1081.28 1617.22 1078.56C1621.78 1075.84 1627.06 1074.48 1633.06 1074.48C1639.06 1074.48 1644.3 1075.84 1648.78 1078.56C1653.34 1081.28 1656.86 1085.16 1659.34 1090.2C1661.82 1095.16 1663.06 1101.08 1663.06 1107.96C1663.06 1114.76 1661.82 1120.68 1659.34 1125.72C1656.86 1130.76 1653.34 1134.64 1648.78 1137.36C1644.3 1140.08 1639.06 1141.44 1633.06 1141.44ZM1633.06 1128.72C1637.94 1128.72 1641.7 1126.92 1644.34 1123.32C1646.98 1119.64 1648.3 1114.52 1648.3 1107.96C1648.3 1101.4 1646.98 1096.32 1644.34 1092.72C1641.7 1089.04 1637.94 1087.2 1633.06 1087.2C1628.18 1087.2 1624.42 1089.04 1621.78 1092.72C1619.14 1096.32 1617.82 1101.4 1617.82 1107.96C1617.82 1114.52 1619.14 1119.64 1621.78 1123.32C1624.42 1126.92 1628.18 1128.72 1633.06 1128.72ZM1777.57 1141.44C1771.57 1141.44 1766.29 1140.08 1761.73 1137.36C1757.25 1134.64 1753.77 1130.76 1751.29 1125.72C1748.81 1120.68 1747.57 1114.76 1747.57 1107.96C1747.57 1101.24 1748.81 1095.4 1751.29 1090.44C1753.77 1085.4 1757.21 1081.48 1761.61 1078.68C1766.09 1075.88 1771.33 1074.48 1777.33 1074.48C1783.09 1074.48 1788.17 1075.84 1792.57 1078.56C1797.05 1081.28 1800.53 1085.16 1803.01 1090.2C1805.57 1095.24 1806.85 1101.24 1806.85 1108.2V1111.92H1762.21C1762.61 1117.36 1764.17 1121.52 1766.89 1124.4C1769.69 1127.28 1773.33 1128.72 1777.81 1128.72C1781.25 1128.72 1784.09 1127.92 1786.33 1126.32C1788.65 1124.64 1790.25 1122.48 1791.13 1119.84L1805.65 1120.92C1803.65 1127.32 1800.25 1132.36 1795.45 1136.04C1790.65 1139.64 1784.69 1141.44 1777.57 1141.44ZM1762.33 1101.6H1791.49C1791.09 1096.72 1789.61 1093.12 1787.05 1090.8C1784.49 1088.4 1781.21 1087.2 1777.21 1087.2C1773.21 1087.2 1769.89 1088.44 1767.25 1090.92C1764.69 1093.32 1763.05 1096.88 1762.33 1101.6ZM1842.92 1141.44C1837.56 1141.44 1832.92 1140.12 1829 1137.48C1825.08 1134.76 1822.04 1130.92 1819.88 1125.96C1817.8 1120.92 1816.76 1114.92 1816.76 1107.96C1816.76 1101 1817.8 1095.04 1819.88 1090.08C1822.04 1085.04 1825.08 1081.2 1829 1078.56C1832.92 1075.84 1837.56 1074.48 1842.92 1074.48C1847.4 1074.48 1851.28 1075.52 1854.56 1077.6C1857.92 1079.6 1860.36 1082.04 1861.88 1084.92V1054.8H1876.04V1140H1862.6L1862.24 1130.04C1860.56 1133.4 1858.04 1136.16 1854.68 1138.32C1851.4 1140.4 1847.48 1141.44 1842.92 1141.44ZM1846.28 1128.72C1849.4 1128.72 1852.12 1127.88 1854.44 1126.2C1856.84 1124.52 1858.68 1122.16 1859.96 1119.12C1861.24 1116 1861.88 1112.28 1861.88 1107.96C1861.88 1103.56 1861.24 1099.84 1859.96 1096.8C1858.68 1093.68 1856.84 1091.32 1854.44 1089.72C1852.12 1088.04 1849.32 1087.2 1846.04 1087.2C1841.48 1087.2 1837.92 1089.04 1835.36 1092.72C1832.8 1096.32 1831.52 1101.4 1831.52 1107.96C1831.52 1114.52 1832.8 1119.64 1835.36 1123.32C1837.92 1126.92 1841.56 1128.72 1846.28 1128.72ZM1918 1140V1075.92H1932.16V1140H1918ZM1893.52 1140V1128.48H1953.04V1140H1893.52ZM1894.72 1087.44V1075.92H1930.12V1087.44H1894.72ZM1917.4 1067.4V1053.96H1931.8V1067.4H1917.4ZM2001.83 1140C1994.95 1140 1989.87 1138.44 1986.59 1135.32C1983.31 1132.12 1981.67 1127.28 1981.67 1120.8V1060.92H1995.83V1119.72C1995.83 1122.68 1996.55 1124.88 1997.99 1126.32C1999.43 1127.76 2001.55 1128.48 2004.35 1128.48H2020.19V1140H2001.83ZM1962.35 1087.44V1075.92H2020.19V1087.44H1962.35Z" fill="#D4D4D4"/>
<path d="M2790.1 97.8003C2784.68 97.8735 2779.15 99.9609 2774.24 104.868L2689.87 189.243C2686.35 192.759 2684.38 197.52 2684.38 202.5V230.625H2712.5C2717.48 230.625 2722.24 228.647 2725.76 225.132L2810.13 140.757C2826.9 123.984 2810.9 99.5947 2792.41 97.9102C2791.64 97.8003 2790.87 97.8003 2790.1 97.8003ZM2773.44 131.602L2783.4 141.562L2717.19 207.773L2707.23 197.812L2773.44 131.602Z" fill="white"/>
</svg>
