<svg width="4000" height="2000" viewBox="0 0 4000 2000" fill="none" xmlns="http://www.w3.org/2000/svg">
<g clip-path="url(#clip0_20_78)">
<rect width="4000" height="2000" rx="120" fill="#1A1B26"/>
<path d="M316.8 1284C316.8 1239.73 322.933 1200.8 335.2 1167.2C347.467 1133.07 368.8 1101.6 399.2 1072.8C429.6 1043.47 472 1014.67 526.4 986.4C547.733 975.2 565.333 964.533 579.2 954.4C593.067 944.267 603.467 933.067 610.4 920.8C617.333 908.533 620.8 893.333 620.8 875.2C620.8 858.667 617.333 844.267 610.4 832C604 819.733 594.133 810.133 580.8 803.2C567.467 796.267 550.933 792.8 531.2 792.8C498.667 792.8 473.6 801.6 456 819.2C438.4 836.8 427.2 862.133 422.4 895.2L319.2 889.6C325.067 832.533 346.133 787.2 382.4 753.6C418.667 720 468.8 703.2 532.8 703.2C573.867 703.2 608.533 710.133 636.8 724C665.067 737.867 686.4 757.6 700.8 783.2C715.2 808.267 722.4 837.333 722.4 870.4C722.4 900.267 717.6 926.133 708 948C698.4 969.333 682.4 989.333 660 1008C638.133 1026.13 608.267 1045.33 570.4 1065.6C538.4 1082.67 512.267 1098.93 492 1114.4C472.267 1129.33 457.6 1143.47 448 1156.8C438.4 1169.6 433.067 1181.6 432 1192.8H723.2V1284H316.8ZM899.688 1284C899.688 1226.4 907.421 1169.87 922.888 1114.4C938.888 1058.93 961.288 1005.6 990.088 954.4C1019.42 902.667 1054.09 853.6 1094.09 807.2H804.488V716H1194.89V801.6C1161.29 839.467 1132.22 877.067 1107.69 914.4C1083.69 951.733 1063.95 989.6 1048.49 1028C1033.55 1065.87 1022.35 1105.87 1014.89 1148C1007.95 1190.13 1004.49 1235.47 1004.49 1284H899.688ZM1479.38 976.8C1454.84 976.8 1432.18 970.667 1411.38 958.4C1390.58 946.133 1373.78 929.867 1360.98 909.6C1348.71 888.8 1342.58 865.6 1342.58 840C1342.58 814.4 1348.71 791.2 1360.98 770.4C1373.78 749.6 1390.58 733.333 1411.38 721.6C1432.18 709.333 1454.84 703.2 1479.38 703.2C1504.44 703.2 1527.11 709.333 1547.38 721.6C1568.18 733.333 1584.71 749.6 1596.98 770.4C1609.78 791.2 1616.18 814.4 1616.18 840C1616.18 865.6 1609.78 888.8 1596.98 909.6C1584.71 929.867 1568.18 946.133 1547.38 958.4C1527.11 970.667 1504.44 976.8 1479.38 976.8ZM1479.38 901.6C1496.44 901.6 1510.84 896 1522.58 884.8C1534.84 873.067 1540.98 858.133 1540.98 840C1540.98 821.333 1534.84 806.4 1522.58 795.2C1510.84 783.467 1496.44 777.6 1479.38 777.6C1462.84 777.6 1448.44 783.467 1436.18 795.2C1423.91 806.933 1417.78 821.867 1417.78 840C1417.78 857.6 1423.91 872.267 1436.18 884C1448.44 895.733 1462.84 901.6 1479.38 901.6Z" fill="white"/>
<path d="M2237.2 911V769H2281.2C2291.07 769 2299.67 770.8 2307 774.4C2314.47 778 2320.2 783.133 2324.2 789.8C2328.33 796.333 2330.4 804.133 2330.4 813.2C2330.4 822.267 2328.33 830.133 2324.2 836.8C2320.2 843.333 2314.47 848.4 2307 852C2299.67 855.467 2291.07 857.2 2281.2 857.2H2258.2V911H2237.2ZM2258.2 837.4H2279C2289.13 837.4 2296.6 835.333 2301.4 831.2C2306.2 827.067 2308.6 821.067 2308.6 813.2C2308.6 805.2 2306.2 799.133 2301.4 795C2296.6 790.867 2289.13 788.8 2279 788.8H2258.2V837.4ZM2385.52 913.4C2378.86 913.4 2372.86 912.2 2367.52 909.8C2362.19 907.4 2357.92 904 2354.72 899.6C2351.66 895.2 2350.12 890.067 2350.12 884.2C2350.12 875.133 2352.86 868.067 2358.32 863C2363.92 857.933 2372.32 854.333 2383.52 852.2L2417.92 845C2417.92 836.733 2416.12 830.533 2412.52 826.4C2408.92 822.267 2403.52 820.2 2396.32 820.2C2389.66 820.2 2384.46 821.733 2380.72 824.8C2376.99 827.867 2374.46 832.133 2373.12 837.6L2351.92 836.2C2353.92 826.067 2358.79 817.867 2366.52 811.6C2374.26 805.333 2384.19 802.2 2396.32 802.2C2409.92 802.2 2420.26 806.067 2427.32 813.8C2434.52 821.533 2438.12 832.2 2438.12 845.8V887.8C2438.12 890.2 2438.66 891.933 2439.72 893C2440.79 893.933 2442.32 894.4 2444.32 894.4H2450.32V911C2449.52 911.133 2448.19 911.267 2446.32 911.4C2444.59 911.533 2442.86 911.6 2441.12 911.6C2436.32 911.6 2432.26 910.8 2428.92 909.2C2425.59 907.6 2423.06 905.133 2421.32 901.8C2419.72 898.333 2418.79 894 2418.52 888.8H2421.72C2420.92 893.467 2418.86 897.667 2415.52 901.4C2412.19 905.133 2407.92 908.067 2402.72 910.2C2397.52 912.333 2391.79 913.4 2385.52 913.4ZM2388.52 896.8C2394.92 896.8 2400.32 895.667 2404.72 893.4C2409.12 891.133 2412.39 887.933 2414.52 883.8C2416.79 879.667 2417.92 874.8 2417.92 869.2V861L2388.32 867C2381.92 868.2 2377.46 870.067 2374.92 872.6C2372.39 875.133 2371.12 878.467 2371.12 882.6C2371.12 887 2372.66 890.467 2375.72 893C2378.79 895.533 2383.06 896.8 2388.52 896.8ZM2503.64 911V804.6H2519.64L2521.44 831.8L2519.64 831.6C2520.98 822.4 2523.84 815.6 2528.24 811.2C2532.64 806.8 2538.71 804.6 2546.44 804.6H2569.04V822.2H2547.24C2542.18 822.2 2537.91 823.2 2534.44 825.2C2530.98 827.067 2528.31 829.933 2526.44 833.8C2524.71 837.533 2523.84 842.2 2523.84 847.8V911H2503.64ZM2476.64 911V894H2557.04V911H2476.64ZM2476.64 821.6V804.6H2515.04V821.6H2476.64ZM2654.97 911C2644.17 911 2636.1 908.533 2630.77 903.6C2625.57 898.533 2622.97 890.8 2622.97 880.4V779.6H2643.17V879.4C2643.17 884.333 2644.3 888 2646.57 890.4C2648.97 892.8 2652.5 894 2657.17 894H2684.57V911H2654.97ZM2589.37 821.6V804.6H2684.57V821.6H2589.37ZM2752.49 911V799.2C2752.49 795.067 2751.29 791.867 2748.89 789.6C2746.62 787.2 2743.42 786 2739.29 786H2714.89V769H2741.49C2751.75 769 2759.49 771.667 2764.69 777C2770.02 782.2 2772.69 789.933 2772.69 800.2V911H2752.49ZM2710.89 911V894H2808.49V911H2710.89ZM2845.61 941V924H2858.61C2862.34 924 2865.08 923.4 2866.81 922.2C2868.68 921.133 2870.08 919.333 2871.01 916.8L2874.61 907.4H2867.81L2829.01 804.6H2850.81L2881.01 888.4L2909.21 804.6H2930.81L2888.41 923C2886.28 929.4 2882.94 934 2878.41 936.8C2874.01 939.6 2868.08 941 2860.61 941H2845.61ZM3120.05 914.2C3108.59 914.2 3098.85 911.2 3090.85 905.2C3082.99 899.2 3076.99 890.667 3072.85 879.6C3068.72 868.533 3066.65 855.4 3066.65 840.2C3066.65 824.867 3068.72 811.667 3072.85 800.6C3076.99 789.533 3082.99 781 3090.85 775C3098.85 768.867 3108.59 765.8 3120.05 765.8C3132.99 765.8 3143.85 770.067 3152.65 778.6C3161.59 787.133 3167.45 799.067 3170.25 814.4L3148.25 815.6C3146.25 805.733 3142.72 798.267 3137.65 793.2C3132.72 788 3126.85 785.4 3120.05 785.4C3113.12 785.4 3107.32 787.533 3102.65 791.8C3097.99 796.067 3094.45 802.267 3092.05 810.4C3089.65 818.533 3088.45 828.467 3088.45 840.2C3088.45 851.8 3089.65 861.667 3092.05 869.8C3094.45 877.8 3097.99 883.933 3102.65 888.2C3107.32 892.467 3113.12 894.6 3120.05 894.6C3127.39 894.6 3133.65 891.8 3138.85 886.2C3144.05 880.6 3147.52 872.4 3149.25 861.6L3171.05 862.6C3168.65 878.867 3162.99 891.533 3154.05 900.6C3145.12 909.667 3133.79 914.2 3120.05 914.2ZM3232.17 911V799.2C3232.17 795.067 3230.98 791.867 3228.58 789.6C3226.31 787.2 3223.11 786 3218.98 786H3194.58V769H3221.18C3231.44 769 3239.18 771.667 3244.38 777C3249.71 782.2 3252.38 789.933 3252.38 800.2V911H3232.17ZM3190.58 911V894H3288.18V911H3190.58ZM3359.3 913.4C3349.43 913.4 3340.76 911.133 3333.3 906.6C3325.96 902.067 3320.23 895.6 3316.1 887.2C3312.1 878.8 3310.1 869 3310.1 857.8C3310.1 846.467 3312.1 836.667 3316.1 828.4C3320.23 820 3325.96 813.533 3333.3 809C3340.76 804.467 3349.43 802.2 3359.3 802.2C3369.16 802.2 3377.76 804.467 3385.1 809C3392.56 813.533 3398.3 820 3402.3 828.4C3406.43 836.667 3408.5 846.467 3408.5 857.8C3408.5 869 3406.43 878.8 3402.3 887.2C3398.3 895.6 3392.56 902.067 3385.1 906.6C3377.76 911.133 3369.16 913.4 3359.3 913.4ZM3359.3 894.8C3368.23 894.8 3375.1 891.533 3379.9 885C3384.83 878.467 3387.3 869.4 3387.3 857.8C3387.3 846.2 3384.83 837.133 3379.9 830.6C3375.1 824.067 3368.23 820.8 3359.3 820.8C3350.36 820.8 3343.43 824.067 3338.5 830.6C3333.7 837.133 3331.3 846.2 3331.3 857.8C3331.3 869.4 3333.7 878.467 3338.5 885C3343.43 891.533 3350.36 894.8 3359.3 894.8ZM3470.02 913.4C3459.75 913.4 3451.55 909.933 3445.42 903C3439.29 895.933 3436.22 886.067 3436.22 873.4V804.6H3456.42V868.2C3456.42 877.8 3458.09 884.8 3461.42 889.2C3464.75 893.6 3469.82 895.8 3476.62 895.8C3483.95 895.8 3489.82 893.333 3494.22 888.4C3498.75 883.467 3501.02 876.467 3501.02 867.4V804.6H3521.22V911H3502.22L3502.02 883.2L3504.82 884.4C3502.95 893.6 3499.02 900.733 3493.02 905.8C3487.02 910.867 3479.35 913.4 3470.02 913.4ZM3590.74 913.4C3581.67 913.4 3573.81 911.2 3567.14 906.8C3560.47 902.267 3555.34 895.867 3551.74 887.6C3548.14 879.2 3546.34 869.267 3546.34 857.8C3546.34 846.333 3548.14 836.467 3551.74 828.2C3555.34 819.8 3560.47 813.4 3567.14 809C3573.81 804.467 3581.67 802.2 3590.74 802.2C3598.21 802.2 3604.74 803.933 3610.34 807.4C3615.94 810.867 3620.01 814.933 3622.54 819.6V769H3642.74V911H3623.94L3623.34 894.6C3620.41 900.333 3616.14 904.933 3610.54 908.4C3604.94 911.733 3598.34 913.4 3590.74 913.4ZM3594.14 894.8C3600.01 894.8 3605.01 893.333 3609.14 890.4C3613.41 887.333 3616.67 883.067 3618.94 877.6C3621.34 872 3622.54 865.4 3622.54 857.8C3622.54 849.933 3621.34 843.267 3618.94 837.8C3616.67 832.333 3613.41 828.133 3609.14 825.2C3604.87 822.267 3599.74 820.8 3593.74 820.8C3585.61 820.8 3579.21 824.067 3574.54 830.6C3569.87 837.133 3567.54 846.2 3567.54 857.8C3567.54 869.267 3569.87 878.333 3574.54 885C3579.21 891.533 3585.74 894.8 3594.14 894.8ZM3685.06 941V924H3698.06C3701.8 924 3704.53 923.4 3706.26 922.2C3708.13 921.133 3709.53 919.333 3710.46 916.8L3714.06 907.4H3707.26L3668.46 804.6H3690.26L3720.46 888.4L3748.66 804.6H3770.26L3727.86 923C3725.73 929.4 3722.4 934 3717.86 936.8C3713.46 939.6 3707.53 941 3700.06 941H3685.06Z" fill="white"/>
<path d="M2239.6 1232V1090H2328.4V1109.4H2248.6L2260.6 1098V1163.2L2248.6 1153H2324.8V1172.2H2248.6L2260.6 1162V1232H2239.6ZM2383.72 1232V1125.6H2399.72L2401.52 1152.8L2399.72 1152.6C2401.06 1143.4 2403.92 1136.6 2408.32 1132.2C2412.72 1127.8 2418.79 1125.6 2426.52 1125.6H2449.12V1143.2H2427.32C2422.26 1143.2 2417.99 1144.2 2414.52 1146.2C2411.06 1148.07 2408.39 1150.93 2406.52 1154.8C2404.79 1158.53 2403.92 1163.2 2403.92 1168.8V1232H2383.72ZM2356.72 1232V1215H2437.12V1232H2356.72ZM2356.72 1142.6V1125.6H2395.12V1142.6H2356.72ZM2516.64 1232V1125.6H2537.04V1232H2516.64ZM2475.04 1232V1215H2572.64V1232H2475.04ZM2477.04 1142.6V1125.6H2535.24V1142.6H2477.04ZM2515.44 1110.2V1089.2H2536.24V1110.2H2515.44ZM2628.57 1263.2L2638.17 1232H2626.57V1205.6H2652.97V1229.2L2640.17 1263.2H2628.57ZM2874.61 1235.2C2865.14 1235.2 2856.88 1233.2 2849.81 1229.2C2842.88 1225.07 2837.41 1219.2 2833.41 1211.6C2829.54 1204 2827.48 1195 2827.21 1184.6L2848.01 1183C2848.28 1194.07 2850.61 1202.27 2855.01 1207.6C2859.41 1212.93 2866.01 1215.6 2874.81 1215.6C2883.61 1215.6 2890.14 1213 2894.41 1207.8C2898.81 1202.47 2901.01 1194.47 2901.01 1183.8V1090H2922.01V1183.8C2922.01 1199.8 2917.81 1212.4 2909.41 1221.6C2901.01 1230.67 2889.41 1235.2 2874.61 1235.2ZM2990.33 1234.4C2980.06 1234.4 2971.86 1230.93 2965.73 1224C2959.6 1216.93 2956.53 1207.07 2956.53 1194.4V1125.6H2976.73V1189.2C2976.73 1198.8 2978.4 1205.8 2981.73 1210.2C2985.06 1214.6 2990.13 1216.8 2996.93 1216.8C3004.26 1216.8 3010.13 1214.33 3014.53 1209.4C3019.06 1204.47 3021.33 1197.47 3021.33 1188.4V1125.6H3041.53V1232H3022.53L3022.33 1204.2L3025.13 1205.4C3023.26 1214.6 3019.33 1221.73 3013.33 1226.8C3007.33 1231.87 2999.66 1234.4 2990.33 1234.4ZM3112.25 1232V1120.2C3112.25 1116.07 3111.05 1112.87 3108.65 1110.6C3106.39 1108.2 3103.19 1107 3099.05 1107H3074.65V1090H3101.25C3111.52 1090 3119.25 1092.67 3124.45 1098C3129.79 1103.2 3132.45 1110.93 3132.45 1121.2V1232H3112.25ZM3070.65 1232V1215H3168.25V1232H3070.65ZM3353.9 1232V1130.8H3317.5V1113H3335.5C3340.7 1113 3344.9 1112.27 3348.1 1110.8C3351.3 1109.2 3353.63 1106.73 3355.1 1103.4C3356.56 1100.07 3357.3 1095.6 3357.3 1090H3374.9V1232H3353.9ZM3310.5 1232V1212.2H3408.1V1232H3310.5ZM3456.02 1232C3456.02 1217.47 3457.95 1203.13 3461.82 1189C3465.82 1174.73 3471.55 1160.93 3479.02 1147.6C3486.49 1134.27 3495.35 1121.67 3505.62 1109.8H3430.82V1090H3527.62V1108.4C3518.95 1118.27 3511.49 1128.07 3505.22 1137.8C3498.95 1147.4 3493.82 1157.13 3489.82 1167C3485.82 1176.87 3482.89 1187.2 3481.02 1198C3479.15 1208.67 3478.22 1220 3478.22 1232H3456.02Z" fill="white"/>
</g>
<defs>
<clipPath id="clip0_20_78">
<rect width="4000" height="2000" rx="120" fill="white"/>
</clipPath>
</defs>
</svg>
