<svg width="3000" height="3000" viewBox="0 0 3000 3000" fill="none" xmlns="http://www.w3.org/2000/svg">
<rect width="3000" height="3000" rx="120" fill="#1A1B26"/>
<circle cx="1500" cy="1500" r="1205.5" stroke="white" stroke-opacity="0.1" stroke-width="99"/>
<circle cx="1499.5" cy="294.5" r="49.5" fill="#E74C3C"/>
<circle cx="1229.5" cy="1669.5" r="49.5" fill="white"/>
<circle cx="1409.5" cy="1669.5" r="49.5" fill="white"/>
<circle cx="1589.5" cy="1669.5" r="49.5" fill="white"/>
<circle cx="1769.5" cy="1669.5" r="49.5" fill="white"/>
<path d="M1219.2 921V779H1308.8V801.4H1228.8L1244 787V852.2L1228.8 840.4H1305.2V862.6H1228.8L1244 851V921H1219.2ZM1379.92 923.4C1369.92 923.4 1361.12 921.133 1353.52 916.6C1346.06 912.067 1340.26 905.6 1336.12 897.2C1331.99 888.8 1329.92 878.933 1329.92 867.6C1329.92 856.267 1331.99 846.4 1336.12 838C1340.26 829.6 1346.06 823.133 1353.52 818.6C1361.12 814.067 1369.92 811.8 1379.92 811.8C1389.92 811.8 1398.66 814.067 1406.12 818.6C1413.72 823.133 1419.59 829.6 1423.72 838C1427.86 846.267 1429.92 856.133 1429.92 867.6C1429.92 878.933 1427.86 888.8 1423.72 897.2C1419.59 905.6 1413.72 912.067 1406.12 916.6C1398.66 921.133 1389.92 923.4 1379.92 923.4ZM1379.92 902.2C1388.06 902.2 1394.32 899.2 1398.72 893.2C1403.12 887.067 1405.32 878.533 1405.32 867.6C1405.32 856.667 1403.12 848.2 1398.72 842.2C1394.32 836.067 1388.06 833 1379.92 833C1371.79 833 1365.52 836.067 1361.12 842.2C1356.72 848.2 1354.52 856.667 1354.52 867.6C1354.52 878.533 1356.72 887.067 1361.12 893.2C1365.52 899.2 1371.79 902.2 1379.92 902.2ZM1502.04 923.4C1491.91 923.4 1483.04 921.067 1475.44 916.4C1467.84 911.733 1461.91 905.267 1457.64 897C1453.38 888.6 1451.24 878.8 1451.24 867.6C1451.24 856.4 1453.38 846.667 1457.64 838.4C1461.91 830 1467.84 823.467 1475.44 818.8C1483.04 814.133 1491.91 811.8 1502.04 811.8C1510.31 811.8 1517.71 813.4 1524.24 816.6C1530.91 819.8 1536.38 824.4 1540.64 830.4C1545.04 836.267 1547.84 843.267 1549.04 851.4L1525.24 852.8C1523.78 846.4 1521.04 841.533 1517.04 838.2C1513.04 834.733 1508.11 833 1502.24 833C1493.98 833 1487.51 836.133 1482.84 842.4C1478.18 848.533 1475.84 856.933 1475.84 867.6C1475.84 878.267 1478.18 886.733 1482.84 893C1487.51 899.133 1493.98 902.2 1502.24 902.2C1508.11 902.2 1513.11 900.4 1517.24 896.8C1521.51 893.2 1524.38 887.933 1525.84 881L1549.64 882.4C1548.31 890.667 1545.44 897.867 1541.04 904C1536.78 910.133 1531.24 914.933 1524.44 918.4C1517.78 921.733 1510.31 923.4 1502.04 923.4ZM1608.97 923.4C1598.7 923.4 1590.57 920 1584.57 913.2C1578.7 906.267 1575.77 896.467 1575.77 883.8V814.2H1599.37V877.6C1599.37 886.533 1600.83 893.067 1603.77 897.2C1606.83 901.2 1611.43 903.2 1617.57 903.2C1623.97 903.2 1629.17 900.933 1633.17 896.4C1637.3 891.733 1639.37 885.2 1639.37 876.8V814.2H1663.17V921H1641.17L1640.77 891.6L1643.77 892.6C1642.03 902.467 1638.17 910.067 1632.17 915.4C1626.17 920.733 1618.43 923.4 1608.97 923.4ZM1741.09 923.4C1731.09 923.4 1722.69 921.8 1715.89 918.6C1709.09 915.4 1703.82 911.067 1700.09 905.6C1696.35 900.133 1694.22 894.067 1693.69 887.4L1717.29 886.4C1718.35 891.467 1720.82 895.533 1724.69 898.6C1728.55 901.533 1734.09 903 1741.29 903C1747.95 903 1752.95 902.133 1756.29 900.4C1759.75 898.533 1761.49 895.8 1761.49 892.2C1761.49 889.933 1760.89 888 1759.69 886.4C1758.62 884.8 1756.42 883.467 1753.09 882.4C1749.75 881.2 1744.82 879.933 1738.29 878.6C1727.62 876.467 1719.22 874 1713.09 871.2C1706.95 868.4 1702.55 864.867 1699.89 860.6C1697.35 856.333 1696.09 851.133 1696.09 845C1696.09 838.733 1697.69 833.133 1700.89 828.2C1704.09 823.133 1708.82 819.133 1715.09 816.2C1721.49 813.267 1729.35 811.8 1738.69 811.8C1748.82 811.8 1757.09 813.467 1763.49 816.8C1769.89 820.133 1774.75 824.467 1778.09 829.8C1781.55 835.133 1783.69 840.867 1784.49 847L1760.69 848.2C1760.02 845.133 1758.75 842.4 1756.89 840C1755.02 837.6 1752.55 835.733 1749.49 834.4C1746.42 832.933 1742.89 832.2 1738.89 832.2C1732.35 832.2 1727.62 833.467 1724.69 836C1721.75 838.533 1720.29 841.533 1720.29 845C1720.29 847.8 1721.02 850.133 1722.49 852C1724.09 853.733 1726.69 855.2 1730.29 856.4C1733.89 857.6 1738.89 858.8 1745.29 860C1755.82 862 1764.02 864.333 1769.89 867C1775.75 869.667 1779.82 873 1782.09 877C1784.49 881 1785.69 886 1785.69 892C1785.69 898.533 1783.89 904.133 1780.29 908.8C1776.69 913.467 1771.55 917.067 1764.89 919.6C1758.22 922.133 1750.29 923.4 1741.09 923.4Z" fill="white"/>
<path d="M918.4 1382C918.4 1359.87 921.467 1340.4 927.6 1323.6C933.733 1306.53 944.4 1290.8 959.6 1276.4C974.8 1261.73 996 1247.33 1023.2 1233.2C1033.87 1227.6 1042.67 1222.27 1049.6 1217.2C1056.53 1212.13 1061.73 1206.53 1065.2 1200.4C1068.67 1194.27 1070.4 1186.67 1070.4 1177.6C1070.4 1169.33 1068.67 1162.13 1065.2 1156C1062 1149.87 1057.07 1145.07 1050.4 1141.6C1043.73 1138.13 1035.47 1136.4 1025.6 1136.4C1009.33 1136.4 996.8 1140.8 988 1149.6C979.2 1158.4 973.6 1171.07 971.2 1187.6L919.6 1184.8C922.533 1156.27 933.067 1133.6 951.2 1116.8C969.333 1100 994.4 1091.6 1026.4 1091.6C1046.93 1091.6 1064.27 1095.07 1078.4 1102C1092.53 1108.93 1103.2 1118.8 1110.4 1131.6C1117.6 1144.13 1121.2 1158.67 1121.2 1175.2C1121.2 1190.13 1118.8 1203.07 1114 1214C1109.2 1224.67 1101.2 1234.67 1090 1244C1079.07 1253.07 1064.13 1262.67 1045.2 1272.8C1029.2 1281.33 1016.13 1289.47 1006 1297.2C996.133 1304.67 988.8 1311.73 984 1318.4C979.2 1324.8 976.533 1330.8 976 1336.4H1121.6V1382H918.4ZM1259.44 1388.4C1239.98 1388.4 1223.04 1384.93 1208.64 1378C1194.51 1370.8 1183.31 1361.07 1175.04 1348.8C1166.78 1336.53 1161.98 1322.67 1160.64 1307.2L1211.84 1304C1213.71 1317.07 1218.64 1326.93 1226.64 1333.6C1234.91 1340.27 1245.84 1343.6 1259.44 1343.6C1274.38 1343.6 1286.11 1338.93 1294.64 1329.6C1303.44 1320.27 1307.84 1306.93 1307.84 1289.6C1307.84 1278.13 1305.84 1268.27 1301.84 1260C1298.11 1251.73 1292.64 1245.47 1285.44 1241.2C1278.24 1236.93 1269.71 1234.8 1259.84 1234.8C1250.24 1234.8 1241.44 1237.2 1233.44 1242C1225.44 1246.8 1219.71 1253.33 1216.24 1261.6L1164.64 1259.6L1182.64 1098H1344.64V1143.6H1224.24L1213.44 1234.8L1203.04 1229.2C1207.31 1221.2 1212.78 1214.53 1219.44 1209.2C1226.11 1203.87 1233.58 1199.87 1241.84 1197.2C1250.38 1194.27 1259.04 1192.8 1267.84 1192.8C1286.51 1192.8 1302.64 1197.07 1316.24 1205.6C1329.84 1213.87 1340.38 1225.33 1347.84 1240C1355.31 1254.4 1359.04 1270.93 1359.04 1289.6C1359.04 1309.07 1354.91 1326.27 1346.64 1341.2C1338.38 1356.13 1326.64 1367.73 1311.44 1376C1296.51 1384.27 1279.18 1388.4 1259.44 1388.4ZM1470.49 1382V1325.6H1528.89V1382H1470.49ZM1470.49 1233.2V1176.8H1528.89V1233.2H1470.49ZM1670.33 1337.6L1776.73 1139.6L1808.73 1142.4L1702.33 1340.4L1670.33 1337.6ZM1739.53 1388.4C1718.46 1388.4 1700.33 1382.4 1685.13 1370.4C1669.93 1358.4 1658.2 1341.33 1649.93 1319.2C1641.93 1297.07 1637.93 1270.8 1637.93 1240.4C1637.93 1209.73 1641.93 1183.33 1649.93 1161.2C1658.2 1139.07 1669.93 1122 1685.13 1110C1700.33 1097.73 1718.46 1091.6 1739.53 1091.6C1760.86 1091.6 1779 1097.73 1793.93 1110C1809.13 1122 1820.73 1139.07 1828.73 1161.2C1837 1183.33 1841.13 1209.73 1841.13 1240.4C1841.13 1270.8 1837 1297.07 1828.73 1319.2C1820.73 1341.33 1809.13 1358.4 1793.93 1370.4C1779 1382.4 1760.86 1388.4 1739.53 1388.4ZM1739.53 1343.6C1750.2 1343.6 1759.26 1339.73 1766.73 1332C1774.2 1324 1779.93 1312.27 1783.93 1296.8C1787.93 1281.33 1789.93 1262.53 1789.93 1240.4C1789.93 1217.73 1787.93 1198.8 1783.93 1183.6C1779.93 1168.13 1774.2 1156.4 1766.73 1148.4C1759.26 1140.4 1750.2 1136.4 1739.53 1136.4C1729.13 1136.4 1720.06 1140.4 1712.33 1148.4C1704.86 1156.4 1699.13 1168.13 1695.13 1183.6C1691.13 1198.8 1689.13 1217.73 1689.13 1240.4C1689.13 1262.53 1691.13 1281.33 1695.13 1296.8C1699.13 1312.27 1704.86 1324 1712.33 1332C1720.06 1339.73 1729.13 1343.6 1739.53 1343.6ZM1910.18 1337.6L2016.58 1139.6L2048.58 1142.4L1942.18 1340.4L1910.18 1337.6ZM1979.38 1388.4C1958.31 1388.4 1940.18 1382.4 1924.98 1370.4C1909.78 1358.4 1898.04 1341.33 1889.78 1319.2C1881.78 1297.07 1877.78 1270.8 1877.78 1240.4C1877.78 1209.73 1881.78 1183.33 1889.78 1161.2C1898.04 1139.07 1909.78 1122 1924.98 1110C1940.18 1097.73 1958.31 1091.6 1979.38 1091.6C2000.71 1091.6 2018.84 1097.73 2033.78 1110C2048.98 1122 2060.58 1139.07 2068.58 1161.2C2076.84 1183.33 2080.98 1209.73 2080.98 1240.4C2080.98 1270.8 2076.84 1297.07 2068.58 1319.2C2060.58 1341.33 2048.98 1358.4 2033.78 1370.4C2018.84 1382.4 2000.71 1388.4 1979.38 1388.4ZM1979.38 1343.6C1990.04 1343.6 1999.11 1339.73 2006.58 1332C2014.04 1324 2019.78 1312.27 2023.78 1296.8C2027.78 1281.33 2029.78 1262.53 2029.78 1240.4C2029.78 1217.73 2027.78 1198.8 2023.78 1183.6C2019.78 1168.13 2014.04 1156.4 2006.58 1148.4C1999.11 1140.4 1990.04 1136.4 1979.38 1136.4C1968.98 1136.4 1959.91 1140.4 1952.18 1148.4C1944.71 1156.4 1938.98 1168.13 1934.98 1183.6C1930.98 1198.8 1928.98 1217.73 1928.98 1240.4C1928.98 1262.53 1930.98 1281.33 1934.98 1296.8C1938.98 1312.27 1944.71 1324 1952.18 1332C1959.91 1339.73 1968.98 1343.6 1979.38 1343.6Z" fill="white"/>
<path d="M1910.75 2029.25V2216.75C1910.75 2235.5 1931.11 2235.5 1931.11 2235.5H1933.24C1937.19 2235.5 1941.07 2234.62 1944.51 2232.72L2101.99 2142.7C2109.02 2138.82 2112.53 2130.91 2112.53 2123C2112.53 2115.09 2109.02 2107.18 2101.99 2103.3L1944.51 2013.28C1941.07 2011.38 1937.19 2010.5 1933.24 2010.5H1931.11C1931.11 2010.5 1910.75 2010.5 1910.75 2029.25Z" fill="white"/>
<path d="M2163.88 2010.5H2145.12C2139.92 2010.5 2135.75 2014.67 2135.75 2019.88V2226.12C2135.75 2231.33 2139.92 2235.5 2145.12 2235.5H2163.88C2169.08 2235.5 2173.25 2231.33 2173.25 2226.12V2019.88C2173.25 2014.67 2169.08 2010.5 2163.88 2010.5Z" fill="white"/>
<path d="M1387.5 2019.88V2226.12C1387.5 2254.25 1411.3 2254.1 1411.3 2254.1H1413.72C1418.33 2254.18 1422.88 2253.15 1426.83 2250.88L1610.52 2145.92C1618.65 2141.38 1622.83 2132.16 1622.83 2122.93C1622.83 2113.7 1618.65 2104.47 1610.52 2100L1426.83 1995.05C1422.88 1992.78 1418.33 1991.75 1413.72 1991.75H1411.3C1411.3 1991.75 1387.5 1991.75 1387.5 2019.88Z" fill="white"/>
<path d="M946.867 1991.75C935.368 1991.9 923.723 1993.43 912.224 1996.51C850.847 2012.99 808 2068.8 808 2132.38C808 2195.95 850.847 2251.76 912.224 2268.17C973.601 2284.65 1038.64 2257.69 1070.43 2202.69C1075.63 2193.68 1072.48 2182.25 1063.54 2177.05C1054.61 2171.93 1043.11 2175 1037.91 2183.94C1014.54 2224.44 967.082 2244.07 921.892 2231.98C876.774 2219.9 845.5 2179.1 845.5 2132.38C845.5 2085.57 876.774 2044.85 921.892 2032.77C967.082 2020.68 1014.54 2040.31 1037.91 2080.81C1039.01 2082.42 1040.25 2083.89 1041.72 2085.06L1041.35 2085.35L1041.2 2085.5H1014.25C1003.92 2085.5 995.5 2093.92 995.5 2104.25C995.5 2104.25 995.5 2123 1014.25 2123H1108V2029.25C1108 2029.25 1108.07 2010.5 1089.25 2010.5C1078.92 2010.5 1070.5 2018.92 1070.5 2029.25V2060.89L1070.21 2061.11L1069.99 2061.33C1046.04 2020.46 1003.78 1995.34 958.366 1992.12C954.558 1991.82 950.749 1991.75 946.867 1991.75Z" fill="white"/>
</svg>
