<svg xmlns="http://www.w3.org/2000/svg" width="1000" height="1000" fill="none" viewBox="0 0 1000 1000"><rect width="1000" height="1000" fill="#1a1b26" rx="50"/><path fill="#fff" d="M332.56 153.28q-6.24 0-10.88-2.48a18.4 18.4 0 0 1-7.2-6.96 25 25 0 0 1-3.12-10.72l10.08-.56a19 19 0 0 0 2 6.56 10.6 10.6 0 0 0 3.92 3.92q2.48 1.28 5.68 1.28 3.04 0 5.12-.8a6.7 6.7 0 0 0 3.28-2.4 6.5 6.5 0 0 0 1.12-3.84q0-2.4-1.12-4.16t-4-3.28-8.24-2.96a43 43 0 0 1-9.44-3.52 14 14 0 0 1-5.44-4.96q-1.76-3.04-1.76-7.6 0-5.12 2.24-8.88a15.3 15.3 0 0 1 6.64-5.92q4.4-2.08 10.48-2.08 6 0 10.24 2.32a16 16 0 0 1 6.64 6.48 24 24 0 0 1 3.04 9.92l-10.16.48a14 14 0 0 0-1.68-5.36 9 9 0 0 0-3.36-3.6 9.6 9.6 0 0 0-5.12-1.28q-4.08 0-6.48 2.08a6.5 6.5 0 0 0-2.4 5.28q0 2.33 1.04 3.84 1.12 1.52 3.76 2.72t7.44 2.4q6.64 1.76 10.48 4.16 3.92 2.4 5.6 5.76a17.5 17.5 0 0 1 1.68 7.92q0 4.87-2.48 8.56a16 16 0 0 1-6.96 5.68q-4.48 2-10.64 2m41.49-.32q-4 0-7.2-1.44a12.6 12.6 0 0 1-5.12-4.08 11 11 0 0 1-1.92-6.4q0-5.44 3.36-8.4 3.44-3.05 9.84-4.4l13.36-2.8q0-4.48-1.92-6.8-1.85-2.4-5.84-2.4-3.69 0-5.68 1.76a8.4 8.4 0 0 0-2.64 4.64l-9.84-.56q1.2-6.15 5.92-9.92 4.8-3.84 12.08-3.84 8.72 0 13.04 4.64t4.32 12.96v15.92q0 1.6.64 2.24.64.56 1.76.56h2.08V152q-.49.07-1.6.16-1.05.16-2.16.16a12 12 0 0 1-5.2-1.04 7.2 7.2 0 0 1-3.2-3.12 12 12 0 0 1-1.2-5.28h1.2a10 10 0 0 1-2.32 5.2 14 14 0 0 1-4.96 3.6 17 17 0 0 1-6.8 1.28m1.68-7.36q3.44 0 5.84-1.2a8.5 8.5 0 0 0 3.6-3.52q1.2-2.32 1.2-5.52v-2.88l-10.64 2.24q-3.45.64-4.8 2.08a5.2 5.2 0 0 0-1.28 3.68q0 2.4 1.6 3.76t4.48 1.36m58.2 6.4q-6.87 0-10.15-3.12-3.28-3.2-3.28-9.68V99.28h9.44v39.2q0 2.96 1.44 4.4t4.24 1.44h10.56V152zm-26.31-35.04v-7.68h38.56v7.68zm63.97 36q-6.16 0-9.76-4.08-3.52-4.16-3.52-11.76v-27.84h9.44v25.36q0 5.36 1.76 7.84 1.83 2.4 5.52 2.4 3.84 0 6.24-2.72 2.48-2.8 2.48-7.84v-25.04h9.52V152h-8.8l-.16-11.76 1.2.4q-1.05 5.93-4.64 9.12-3.6 3.2-9.28 3.2m45.08-.96v-42.72h7.2l.73 11.04h-.73q.8-5.6 3.37-8.32 2.63-2.72 7.43-2.72h9.37v7.92h-8.8q-3.05 0-5.04 1.12a7.3 7.3 0 0 0-3.05 3.28 12.5 12.5 0 0 0-1.03 5.44V152zm-10.55 0v-7.68h33.2V152zm0-35.04v-7.68h16.08v7.68zm61.72 36q-5.35 0-9.28-2.64a17.6 17.6 0 0 1-6.08-7.68q-2.08-5.04-2.08-12t2.08-11.92a17 17 0 0 1 6.08-7.68 16 16 0 0 1 9.28-2.72q4.49 0 7.76 2.08a12.6 12.6 0 0 1 4.88 4.88V95.2h9.44V152h-8.96l-.24-6.64a14 14 0 0 1-5.04 5.52 14.3 14.3 0 0 1-7.84 2.08m2.24-8.48q3.13 0 5.44-1.68 2.4-1.69 3.68-4.72a20 20 0 0 0 1.28-7.44q0-4.4-1.28-7.44a10 10 0 0 0-3.68-4.72 9.3 9.3 0 0 0-5.6-1.68 8.2 8.2 0 0 0-7.12 3.68q-2.56 3.6-2.56 10.16t2.56 10.24q2.57 3.6 7.28 3.6m43.81 8.48q-3.99 0-7.2-1.44a12.6 12.6 0 0 1-5.12-4.08 11 11 0 0 1-1.92-6.4q0-5.44 3.36-8.4 3.45-3.05 9.84-4.4l13.36-2.8q0-4.48-1.92-6.8-1.83-2.4-5.84-2.4-3.67 0-5.68 1.76a8.4 8.4 0 0 0-2.64 4.64l-9.84-.56q1.2-6.15 5.92-9.92 4.8-3.84 12.08-3.84 8.73 0 13.04 4.64 4.32 4.64 4.32 12.96v15.92q0 1.6.64 2.24.65.56 1.76.56h2.08V152q-.48.07-1.6.16-1.04.16-2.16.16a12 12 0 0 1-5.2-1.04 7.2 7.2 0 0 1-3.2-3.12 12 12 0 0 1-1.2-5.28h1.2a10 10 0 0 1-2.32 5.2 14 14 0 0 1-4.96 3.6 17 17 0 0 1-6.8 1.28m1.68-7.36q3.44 0 5.84-1.2a8.5 8.5 0 0 0 3.6-3.52q1.2-2.32 1.2-5.52v-2.88l-10.64 2.24q-3.45.64-4.8 2.08a5.2 5.2 0 0 0-1.28 3.68q0 2.4 1.6 3.76t4.48 1.36m38.05 18.4v-7.68h5.44q2.16 0 3.28-.64a4 4 0 0 0 1.68-2.24l1.36-3.52h-3.12l-15.28-40.64h10l11.36 31.68 10.4-31.68h10l-16.72 47.04q-1.44 4.08-4.4 5.84-2.88 1.84-7.6 1.84z"/><path fill="#272833" d="M0 223h1000v777H0z"/><path fill="#fff" d="M488.6 611V465.2h-53.4V434h25.2q12 0 19.2-3.3 7.5-3.6 10.8-11.4 3.6-8.1 3.6-21.3h31.8v213zm-63 0v-34.2h148.8V611zm-67.92 209 16.16-56.8h12.32l16.16 56.8h-10.16L380 774.4 367.84 820zm9.92-13.44 2.72-8.88h19.36l2.72 8.88zm56.05 14.4q-6.16 0-9.76-4.08-3.52-4.16-3.52-11.76v-27.84h9.44v25.36q0 5.36 1.76 7.84 1.84 2.4 5.52 2.4 3.84 0 6.24-2.72 2.48-2.8 2.48-7.84v-25.04h9.52V820h-8.8l-.16-11.76 1.2.4q-1.05 5.93-4.64 9.12-3.6 3.2-9.28 3.2m52.05 12q-5.04 0-8.88-1.52a16.4 16.4 0 0 1-6.24-4.32 15 15 0 0 1-3.36-6.48l9.92-.64a6.4 6.4 0 0 0 2.72 3.6q2 1.36 5.84 1.36 4.95 0 7.52-2.16 2.64-2.16 2.64-6.32v-5.6a12 12 0 0 1-4.64 5.04 14 14 0 0 1-7.44 1.84q-5.2 0-9.28-2.56a18 18 0 0 1-6.4-7.28 23.5 23.5 0 0 1-2.32-10.64q0-6.32 2.24-10.96a18 18 0 0 1 6.32-7.36 16.3 16.3 0 0 1 9.2-2.64q4.4 0 7.6 2a12.3 12.3 0 0 1 4.88 5.52l.16-6.56h9.12v38.32q0 5.68-2.4 9.52a14.6 14.6 0 0 1-6.8 5.84q-4.4 2-10.4 2m0-23.12q4.47 0 7.28-3.28 2.79-3.28 2.88-9.44 0-4.08-1.28-6.96a9 9 0 0 0-3.52-4.32 9.6 9.6 0 0 0-5.36-1.52q-4.8 0-7.44 3.36-2.64 3.28-2.64 9.44t2.64 9.44q2.72 3.28 7.44 3.28m43.89 11.12q-6.16 0-9.76-4.08-3.52-4.16-3.52-11.76v-27.84h9.44v25.36q0 5.36 1.76 7.84 1.83 2.4 5.52 2.4 3.84 0 6.24-2.72 2.48-2.8 2.48-7.84v-25.04h9.52V820h-8.8l-.16-11.76 1.2.4q-1.05 5.93-4.64 9.12-3.6 3.2-9.28 3.2m52.84 0q-6 0-10.07-1.92a15.4 15.4 0 0 1-6.33-5.2 15 15 0 0 1-2.55-7.28l9.43-.4a8.2 8.2 0 0 0 2.97 4.88q2.31 1.76 6.63 1.76 4 0 6-1.04 2.1-1.12 2.09-3.28 0-1.35-.73-2.32-.63-.96-2.63-1.6-2-.72-5.92-1.52-6.4-1.28-10.09-2.96-3.67-1.68-5.27-4.24a12 12 0 0 1-1.53-6.24q0-3.76 1.93-6.72a13 13 0 0 1 5.67-4.8q3.85-1.76 9.45-1.76 6.08 0 9.91 2a14.7 14.7 0 0 1 5.85 5.2 16 16 0 0 1 2.55 6.88l-9.51.48a8 8 0 0 0-1.52-3.28 7.4 7.4 0 0 0-2.97-2.24 10 10 0 0 0-4.24-.88q-3.9 0-5.67 1.52a4.6 4.6 0 0 0-1.76 3.6q0 1.68.88 2.8a7.4 7.4 0 0 0 3.12 1.76q2.14.72 6 1.44 6.3 1.2 9.84 2.8 3.51 1.6 4.88 4 1.43 2.4 1.43 6 0 3.91-2.15 6.72a13.7 13.7 0 0 1-6.16 4.32 27 27 0 0 1-9.53 1.52m53.41-.96q-6.87 0-10.16-3.12-3.27-3.2-3.28-9.68v-39.92h9.44v39.2q0 2.96 1.44 4.4t4.24 1.44h10.56V820zm-26.32-35.04v-7.68h38.56v7.68z"/></svg>