<svg width="6000" height="3000" viewBox="0 0 6000 3000" fill="none" xmlns="http://www.w3.org/2000/svg">
<g clip-path="url(#clip0_31_100)">
<rect width="6000" height="3000" rx="120" fill="#1A1B26"/>
<circle cx="4512" cy="1500" r="1105" stroke="white" stroke-opacity="0.21" stroke-width="300"/>
<path d="M4517 2600C5124.51 2600 5617 2107.51 5617 1500C5617 892.487 5124.51 400 4517 400" stroke="#7AA2F7" stroke-width="300" stroke-linecap="round"/>
<path d="M4221.5 2215V1966.5H4297.1C4323.23 1966.5 4343.88 1973.15 4359.05 1986.45C4374.22 1999.52 4381.8 2017.6 4381.8 2040.7C4381.8 2052.37 4379.12 2062.75 4373.75 2071.85C4368.38 2080.72 4361.5 2087.72 4353.1 2092.85C4344.7 2097.98 4336.07 2100.9 4327.2 2101.6L4325.8 2097.4C4342.37 2098.33 4354.73 2102.3 4362.9 2109.3C4371.3 2116.3 4376.2 2127.73 4377.6 2143.6L4383.9 2215H4353.8L4347.85 2147.45C4347.15 2139.75 4345.28 2133.57 4342.25 2128.9C4339.45 2124 4334.9 2120.5 4328.6 2118.4C4322.53 2116.07 4314.13 2114.9 4303.4 2114.9H4251.6V2215H4221.5ZM4251.6 2085.5H4297.1C4314.37 2085.5 4327.55 2081.65 4336.65 2073.95C4345.75 2066.02 4350.3 2054.93 4350.3 2040.7C4350.3 2026.23 4345.75 2015.15 4336.65 2007.45C4327.55 1999.75 4314.37 1995.9 4297.1 1995.9H4251.6V2085.5ZM4415.96 2215L4491.56 1966.5H4532.16L4607.76 2215H4575.56L4511.86 1993.8L4448.16 2215H4415.96ZM4454.11 2144.3L4464.61 2114.9H4559.11L4569.61 2144.3H4454.11ZM4708.43 2187L4661.53 1994.5H4664.33V2215H4634.23V1966.5H4679.73L4728.73 2170.9H4714.73L4763.73 1966.5H4809.23V2215H4779.13V1994.5H4781.93L4735.03 2187H4708.43Z" fill="#EAEAEA"/>
<path d="M4031.2 1639.8C3992.27 1639.8 3958.4 1632.87 3929.6 1619C3901.33 1604.6 3878.93 1585.13 3862.4 1560.6C3845.87 1536.07 3836.27 1508.33 3833.6 1477.4L3936 1471C3939.73 1497.13 3949.6 1516.87 3965.6 1530.2C3982.13 1543.53 4004 1550.2 4031.2 1550.2C4061.07 1550.2 4084.53 1540.87 4101.6 1522.2C4119.2 1503.53 4128 1476.87 4128 1442.2C4128 1419.27 4124 1399.53 4116 1383C4108.53 1366.47 4097.6 1353.93 4083.2 1345.4C4068.8 1336.87 4051.73 1332.6 4032 1332.6C4012.8 1332.6 3995.2 1337.4 3979.2 1347C3963.2 1356.6 3951.73 1369.67 3944.8 1386.2L3841.6 1382.2L3877.6 1059H4201.6V1150.2H3960.8L3939.2 1332.6L3918.4 1321.4C3926.93 1305.4 3937.87 1292.07 3951.2 1281.4C3964.53 1270.73 3979.47 1262.73 3996 1257.4C4013.07 1251.53 4030.4 1248.6 4048 1248.6C4085.33 1248.6 4117.6 1257.13 4144.8 1274.2C4172 1290.73 4193.07 1313.67 4208 1343C4222.93 1371.8 4230.4 1404.87 4230.4 1442.2C4230.4 1481.13 4222.13 1515.53 4205.6 1545.4C4189.07 1575.27 4165.6 1598.47 4135.2 1615C4105.33 1631.53 4070.67 1639.8 4031.2 1639.8ZM4373.29 1538.2L4586.09 1142.2L4650.09 1147.8L4437.29 1543.8L4373.29 1538.2ZM4511.69 1639.8C4469.55 1639.8 4433.29 1627.8 4402.89 1603.8C4372.49 1579.8 4349.02 1545.67 4332.49 1501.4C4316.49 1457.13 4308.49 1404.6 4308.49 1343.8C4308.49 1282.47 4316.49 1229.67 4332.49 1185.4C4349.02 1141.13 4372.49 1107 4402.89 1083C4433.29 1058.47 4469.55 1046.2 4511.69 1046.2C4554.35 1046.2 4590.62 1058.47 4620.49 1083C4650.89 1107 4674.09 1141.13 4690.09 1185.4C4706.62 1229.67 4714.89 1282.47 4714.89 1343.8C4714.89 1404.6 4706.62 1457.13 4690.09 1501.4C4674.09 1545.67 4650.89 1579.8 4620.49 1603.8C4590.62 1627.8 4554.35 1639.8 4511.69 1639.8ZM4511.69 1550.2C4533.02 1550.2 4551.15 1542.47 4566.09 1527C4581.02 1511 4592.49 1487.53 4600.49 1456.6C4608.49 1425.67 4612.49 1388.07 4612.49 1343.8C4612.49 1298.47 4608.49 1260.6 4600.49 1230.2C4592.49 1199.27 4581.02 1175.8 4566.09 1159.8C4551.15 1143.8 4533.02 1135.8 4511.69 1135.8C4490.89 1135.8 4472.75 1143.8 4457.29 1159.8C4442.35 1175.8 4430.89 1199.27 4422.89 1230.2C4414.89 1260.6 4410.89 1298.47 4410.89 1343.8C4410.89 1388.07 4414.89 1425.67 4422.89 1456.6C4430.89 1487.53 4442.35 1511 4457.29 1527C4472.75 1542.47 4490.89 1550.2 4511.69 1550.2ZM4872.98 1334.2C4839.91 1334.2 4812.18 1322.47 4789.78 1299C4767.38 1275.53 4756.18 1240.33 4756.18 1193.4C4756.18 1146.47 4767.38 1111.27 4789.78 1087.8C4812.18 1064.33 4839.91 1052.6 4872.98 1052.6C4907.11 1052.6 4935.11 1064.33 4956.97 1087.8C4979.38 1111.27 4990.58 1146.47 4990.58 1193.4C4990.58 1240.33 4979.38 1275.53 4956.97 1299C4935.11 1322.47 4907.11 1334.2 4872.98 1334.2ZM4872.98 1276.6C4887.38 1276.6 4898.58 1269.67 4906.58 1255.8C4915.11 1241.4 4919.38 1220.6 4919.38 1193.4C4919.38 1166.2 4915.11 1145.67 4906.58 1131.8C4898.58 1117.4 4887.38 1110.2 4872.98 1110.2C4858.58 1110.2 4847.38 1117.4 4839.38 1131.8C4831.38 1145.67 4827.38 1166.2 4827.38 1193.4C4827.38 1220.6 4831.38 1241.4 4839.38 1255.8C4847.38 1269.67 4858.58 1276.6 4872.98 1276.6ZM4791.38 1627L5123.38 1059H5191.38L4859.38 1627H4791.38ZM5109.78 1633.4C5076.18 1633.4 5048.18 1621.67 5025.78 1598.2C5003.38 1574.73 4992.18 1539.53 4992.18 1492.6C4992.18 1445.67 5003.38 1410.47 5025.78 1387C5048.18 1363.53 5076.18 1351.8 5109.78 1351.8C5143.38 1351.8 5171.11 1363.53 5192.98 1387C5215.38 1410.47 5226.58 1445.67 5226.58 1492.6C5226.58 1539.53 5215.38 1574.73 5192.98 1598.2C5171.11 1621.67 5143.38 1633.4 5109.78 1633.4ZM5109.78 1575.8C5124.18 1575.8 5135.38 1568.87 5143.38 1555C5151.38 1540.6 5155.37 1519.8 5155.37 1492.6C5155.37 1465.4 5151.38 1444.87 5143.38 1431C5135.38 1416.6 5124.18 1409.4 5109.78 1409.4C5095.38 1409.4 5083.91 1416.6 5075.38 1431C5067.38 1444.87 5063.38 1465.4 5063.38 1492.6C5063.38 1519.8 5067.38 1540.6 5075.38 1555C5083.91 1568.87 5095.38 1575.8 5109.78 1575.8Z" fill="white"/>
<circle cx="1500" cy="1500" r="1105" stroke="white" stroke-opacity="0.21" stroke-width="300"/>
<path d="M1290.7 2220.6C1270.87 2220.6 1254.07 2215.35 1240.3 2204.85C1226.53 2194.35 1216.03 2179.42 1208.8 2160.05C1201.8 2140.68 1198.3 2117.7 1198.3 2091.1C1198.3 2064.27 1201.8 2041.17 1208.8 2021.8C1216.03 2002.43 1226.53 1987.5 1240.3 1977C1254.07 1966.27 1270.87 1960.9 1290.7 1960.9C1312.63 1960.9 1331.3 1968.13 1346.7 1982.6C1362.1 1996.83 1372.37 2016.78 1377.5 2042.45L1345.3 2044.55C1341.33 2026.58 1334.45 2013.05 1324.65 2003.95C1315.08 1994.85 1303.77 1990.3 1290.7 1990.3C1277.4 1990.3 1266.2 1994.27 1257.1 2002.2C1248.23 2009.9 1241.47 2021.33 1236.8 2036.5C1232.13 2051.43 1229.8 2069.63 1229.8 2091.1C1229.8 2112.33 1232.13 2130.42 1236.8 2145.35C1241.47 2160.28 1248.23 2171.72 1257.1 2179.65C1266.2 2187.35 1277.4 2191.2 1290.7 2191.2C1305.17 2191.2 1317.42 2186.18 1327.45 2176.15C1337.48 2166.12 1344.25 2151.18 1347.75 2131.35L1379.6 2133.1C1375.17 2160.4 1365.13 2181.87 1349.5 2197.5C1333.87 2212.9 1314.27 2220.6 1290.7 2220.6ZM1426.36 2215V1966.5H1501.96C1519.23 1966.5 1534.28 1969.53 1547.11 1975.6C1559.95 1981.67 1569.86 1990.42 1576.86 2001.85C1583.86 2013.05 1587.36 2026.58 1587.36 2042.45C1587.36 2058.32 1583.86 2071.97 1576.86 2083.4C1569.86 2094.6 1559.95 2103.23 1547.11 2109.3C1534.28 2115.37 1519.23 2118.4 1501.96 2118.4H1456.46V2215H1426.36ZM1456.46 2089H1498.46C1518.06 2089 1532.53 2085.03 1541.86 2077.1C1551.2 2068.93 1555.86 2057.38 1555.86 2042.45C1555.86 2027.28 1551.2 2015.73 1541.86 2007.8C1532.53 1999.87 1518.06 1995.9 1498.46 1995.9H1456.46V2089ZM1709.73 2220.6C1683.59 2220.6 1663.06 2212.32 1648.13 2195.75C1633.19 2179.18 1625.73 2156.67 1625.73 2128.2V1966.5H1655.83V2128.2C1655.83 2148.73 1660.38 2164.37 1669.48 2175.1C1678.81 2185.83 1692.23 2191.2 1709.73 2191.2C1727.23 2191.2 1740.53 2185.83 1749.63 2175.1C1758.96 2164.37 1763.63 2148.73 1763.63 2128.2V1966.5H1793.73V2128.2C1793.73 2156.67 1786.26 2179.18 1771.33 2195.75C1756.39 2212.32 1735.86 2220.6 1709.73 2220.6Z" fill="#EAEAEA"/>
<path d="M1019.2 1639.8C980.267 1639.8 946.4 1632.87 917.6 1619C889.333 1604.6 866.933 1585.13 850.4 1560.6C833.867 1536.07 824.267 1508.33 821.6 1477.4L924 1471C927.733 1497.13 937.6 1516.87 953.6 1530.2C970.133 1543.53 992 1550.2 1019.2 1550.2C1049.07 1550.2 1072.53 1540.87 1089.6 1522.2C1107.2 1503.53 1116 1476.87 1116 1442.2C1116 1419.27 1112 1399.53 1104 1383C1096.53 1366.47 1085.6 1353.93 1071.2 1345.4C1056.8 1336.87 1039.73 1332.6 1020 1332.6C1000.8 1332.6 983.2 1337.4 967.2 1347C951.2 1356.6 939.733 1369.67 932.8 1386.2L829.6 1382.2L865.6 1059H1189.6V1150.2H948.8L927.2 1332.6L906.4 1321.4C914.933 1305.4 925.867 1292.07 939.2 1281.4C952.533 1270.73 967.467 1262.73 984 1257.4C1001.07 1251.53 1018.4 1248.6 1036 1248.6C1073.33 1248.6 1105.6 1257.13 1132.8 1274.2C1160 1290.73 1181.07 1313.67 1196 1343C1210.93 1371.8 1218.4 1404.87 1218.4 1442.2C1218.4 1481.13 1210.13 1515.53 1193.6 1545.4C1177.07 1575.27 1153.6 1598.47 1123.2 1615C1093.33 1631.53 1058.67 1639.8 1019.2 1639.8ZM1361.29 1538.2L1574.09 1142.2L1638.09 1147.8L1425.29 1543.8L1361.29 1538.2ZM1499.69 1639.8C1457.55 1639.8 1421.29 1627.8 1390.89 1603.8C1360.49 1579.8 1337.02 1545.67 1320.49 1501.4C1304.49 1457.13 1296.49 1404.6 1296.49 1343.8C1296.49 1282.47 1304.49 1229.67 1320.49 1185.4C1337.02 1141.13 1360.49 1107 1390.89 1083C1421.29 1058.47 1457.55 1046.2 1499.69 1046.2C1542.35 1046.2 1578.62 1058.47 1608.49 1083C1638.89 1107 1662.09 1141.13 1678.09 1185.4C1694.62 1229.67 1702.89 1282.47 1702.89 1343.8C1702.89 1404.6 1694.62 1457.13 1678.09 1501.4C1662.09 1545.67 1638.89 1579.8 1608.49 1603.8C1578.62 1627.8 1542.35 1639.8 1499.69 1639.8ZM1499.69 1550.2C1521.02 1550.2 1539.15 1542.47 1554.09 1527C1569.02 1511 1580.49 1487.53 1588.49 1456.6C1596.49 1425.67 1600.49 1388.07 1600.49 1343.8C1600.49 1298.47 1596.49 1260.6 1588.49 1230.2C1580.49 1199.27 1569.02 1175.8 1554.09 1159.8C1539.15 1143.8 1521.02 1135.8 1499.69 1135.8C1478.89 1135.8 1460.75 1143.8 1445.29 1159.8C1430.35 1175.8 1418.89 1199.27 1410.89 1230.2C1402.89 1260.6 1398.89 1298.47 1398.89 1343.8C1398.89 1388.07 1402.89 1425.67 1410.89 1456.6C1418.89 1487.53 1430.35 1511 1445.29 1527C1460.75 1542.47 1478.89 1550.2 1499.69 1550.2ZM1860.98 1334.2C1827.91 1334.2 1800.18 1322.47 1777.78 1299C1755.38 1275.53 1744.18 1240.33 1744.18 1193.4C1744.18 1146.47 1755.38 1111.27 1777.78 1087.8C1800.18 1064.33 1827.91 1052.6 1860.98 1052.6C1895.11 1052.6 1923.11 1064.33 1944.97 1087.8C1967.38 1111.27 1978.58 1146.47 1978.58 1193.4C1978.58 1240.33 1967.38 1275.53 1944.97 1299C1923.11 1322.47 1895.11 1334.2 1860.98 1334.2ZM1860.98 1276.6C1875.38 1276.6 1886.58 1269.67 1894.58 1255.8C1903.11 1241.4 1907.38 1220.6 1907.38 1193.4C1907.38 1166.2 1903.11 1145.67 1894.58 1131.8C1886.58 1117.4 1875.38 1110.2 1860.98 1110.2C1846.58 1110.2 1835.38 1117.4 1827.38 1131.8C1819.38 1145.67 1815.38 1166.2 1815.38 1193.4C1815.38 1220.6 1819.38 1241.4 1827.38 1255.8C1835.38 1269.67 1846.58 1276.6 1860.98 1276.6ZM1779.38 1627L2111.38 1059H2179.38L1847.38 1627H1779.38ZM2097.78 1633.4C2064.18 1633.4 2036.18 1621.67 2013.78 1598.2C1991.38 1574.73 1980.18 1539.53 1980.18 1492.6C1980.18 1445.67 1991.38 1410.47 2013.78 1387C2036.18 1363.53 2064.18 1351.8 2097.78 1351.8C2131.38 1351.8 2159.11 1363.53 2180.98 1387C2203.38 1410.47 2214.58 1445.67 2214.58 1492.6C2214.58 1539.53 2203.38 1574.73 2180.98 1598.2C2159.11 1621.67 2131.38 1633.4 2097.78 1633.4ZM2097.78 1575.8C2112.18 1575.8 2123.38 1568.87 2131.38 1555C2139.38 1540.6 2143.37 1519.8 2143.37 1492.6C2143.37 1465.4 2139.38 1444.87 2131.38 1431C2123.38 1416.6 2112.18 1409.4 2097.78 1409.4C2083.38 1409.4 2071.91 1416.6 2063.38 1431C2055.38 1444.87 2051.38 1465.4 2051.38 1492.6C2051.38 1519.8 2055.38 1540.6 2063.38 1555C2071.91 1568.87 2083.38 1575.8 2097.78 1575.8Z" fill="white"/>
<path d="M1500 2600C2107.51 2600 2600 2107.51 2600 1500C2600 892.487 2107.51 400 1500 400" stroke="#FF9E64" stroke-width="300" stroke-linecap="round"/>
</g>
<defs>
<clipPath id="clip0_31_100">
<rect width="6000" height="3000" rx="120" fill="white"/>
</clipPath>
</defs>
</svg>
