<svg width="3000" height="2000" viewBox="0 0 3000 2000" fill="none" xmlns="http://www.w3.org/2000/svg">
<rect width="3000" height="2000" rx="120" fill="#1A1B26"/>
<path d="M1129.6 741V595.2H1076.2V564H1101.4C1109.4 564 1115.8 562.9 1120.6 560.7C1125.6 558.3 1129.2 554.5 1131.4 549.3C1133.8 543.9 1135 536.8 1135 528H1166.8V741H1129.6ZM1066.6 741V706.8H1215.4V741H1066.6ZM1298.98 741V698.7H1342.78V741H1298.98ZM1424.57 741C1424.57 724.4 1426.87 709.8 1431.47 697.2C1436.07 684.4 1444.07 672.6 1455.47 661.8C1466.87 650.8 1482.77 640 1503.17 629.4C1511.17 625.2 1517.77 621.2 1522.97 617.4C1528.17 613.6 1532.07 609.4 1534.67 604.8C1537.27 600.2 1538.57 594.5 1538.57 587.7C1538.57 581.5 1537.27 576.1 1534.67 571.5C1532.27 566.9 1528.57 563.3 1523.57 560.7C1518.57 558.1 1512.37 556.8 1504.97 556.8C1492.77 556.8 1483.37 560.1 1476.77 566.7C1470.17 573.3 1465.97 582.8 1464.17 595.2L1425.47 593.1C1427.67 571.7 1435.57 554.7 1449.17 542.1C1462.77 529.5 1481.57 523.2 1505.57 523.2C1520.97 523.2 1533.97 525.8 1544.57 531C1555.17 536.2 1563.17 543.6 1568.57 553.2C1573.97 562.6 1576.67 573.5 1576.67 585.9C1576.67 597.1 1574.87 606.8 1571.27 615C1567.67 623 1561.67 630.5 1553.27 637.5C1545.07 644.3 1533.87 651.5 1519.67 659.1C1507.67 665.5 1497.87 671.6 1490.27 677.4C1482.87 683 1477.37 688.3 1473.77 693.3C1470.17 698.1 1468.17 702.6 1467.77 706.8H1576.97V741H1424.57ZM1820.33 680.1V625.8L1893.53 528H1937.93L1820.33 680.1ZM1786.13 741V528H1823.33V741H1786.13ZM1897.73 741L1836.53 639L1861.73 614.7L1939.73 741H1897.73ZM2055.41 744.6C2044.21 744.6 2034.41 742 2026.01 736.8C2017.81 731.4 2011.51 724.5 2007.11 716.1L2006.21 741H1972.61V528H2008.01V603.3C2012.01 596.1 2018.11 590 2026.31 585C2034.71 579.8 2044.41 577.2 2055.41 577.2C2068.81 577.2 2080.41 580.6 2090.21 587.4C2100.01 594 2107.51 603.6 2112.71 616.2C2118.11 628.6 2120.81 643.5 2120.81 660.9C2120.81 678.3 2118.11 693.3 2112.71 705.9C2107.51 718.3 2100.01 727.9 2090.21 734.7C2080.41 741.3 2068.81 744.6 2055.41 744.6ZM2047.01 712.8C2058.81 712.8 2067.91 708.3 2074.31 699.3C2080.71 690.1 2083.91 677.3 2083.91 660.9C2083.91 644.5 2080.71 631.8 2074.31 622.8C2067.91 613.6 2059.01 609 2047.61 609C2039.41 609 2032.31 611.1 2026.31 615.3C2020.51 619.3 2016.01 625.2 2012.81 633C2009.61 640.6 2008.01 649.9 2008.01 660.9C2008.01 671.7 2009.61 681 2012.81 688.8C2016.21 696.4 2020.81 702.3 2026.61 706.5C2032.41 710.7 2039.21 712.8 2047.01 712.8ZM2158.5 774L2248.5 516H2282.1L2192.1 774H2158.5ZM2402.28 744.6C2387.28 744.6 2374.68 742.2 2364.48 737.4C2354.28 732.6 2346.38 726.1 2340.78 717.9C2335.18 709.7 2331.98 700.6 2331.18 690.6L2366.58 689.1C2368.18 696.7 2371.88 702.8 2377.68 707.4C2383.48 711.8 2391.78 714 2402.58 714C2412.58 714 2420.08 712.7 2425.08 710.1C2430.28 707.3 2432.88 703.2 2432.88 697.8C2432.88 694.4 2431.98 691.5 2430.18 689.1C2428.58 686.7 2425.28 684.7 2420.28 683.1C2415.28 681.3 2407.88 679.4 2398.08 677.4C2382.08 674.2 2369.48 670.5 2360.28 666.3C2351.08 662.1 2344.48 656.8 2340.48 650.4C2336.68 644 2334.78 636.2 2334.78 627C2334.78 617.6 2337.18 609.2 2341.98 601.8C2346.78 594.2 2353.88 588.2 2363.28 583.8C2372.88 579.4 2384.68 577.2 2398.68 577.2C2413.88 577.2 2426.28 579.7 2435.88 584.7C2445.48 589.7 2452.78 596.2 2457.78 604.2C2462.98 612.2 2466.18 620.8 2467.38 630L2431.68 631.8C2430.68 627.2 2428.78 623.1 2425.98 619.5C2423.18 615.9 2419.48 613.1 2414.88 611.1C2410.28 608.9 2404.98 607.8 2398.98 607.8C2389.18 607.8 2382.08 609.7 2377.68 613.5C2373.28 617.3 2371.08 621.8 2371.08 627C2371.08 631.2 2372.18 634.7 2374.38 637.5C2376.78 640.1 2380.68 642.3 2386.08 644.1C2391.48 645.9 2398.98 647.7 2408.58 649.5C2424.38 652.5 2436.68 656 2445.48 660C2454.28 664 2460.38 669 2463.78 675C2467.38 681 2469.18 688.5 2469.18 697.5C2469.18 707.3 2466.48 715.7 2461.08 722.7C2455.68 729.7 2447.98 735.1 2437.98 738.9C2427.98 742.7 2416.08 744.6 2402.28 744.6Z" fill="white"/>
<path d="M1129.6 741V595.2H1076.2V564H1101.4C1109.4 564 1115.8 562.9 1120.6 560.7C1125.6 558.3 1129.2 554.5 1131.4 549.3C1133.8 543.9 1135 536.8 1135 528H1166.8V741H1129.6ZM1066.6 741V706.8H1215.4V741H1066.6ZM1298.98 741V698.7H1342.78V741H1298.98ZM1424.57 741C1424.57 724.4 1426.87 709.8 1431.47 697.2C1436.07 684.4 1444.07 672.6 1455.47 661.8C1466.87 650.8 1482.77 640 1503.17 629.4C1511.17 625.2 1517.77 621.2 1522.97 617.4C1528.17 613.6 1532.07 609.4 1534.67 604.8C1537.27 600.2 1538.57 594.5 1538.57 587.7C1538.57 581.5 1537.27 576.1 1534.67 571.5C1532.27 566.9 1528.57 563.3 1523.57 560.7C1518.57 558.1 1512.37 556.8 1504.97 556.8C1492.77 556.8 1483.37 560.1 1476.77 566.7C1470.17 573.3 1465.97 582.8 1464.17 595.2L1425.47 593.1C1427.67 571.7 1435.57 554.7 1449.17 542.1C1462.77 529.5 1481.57 523.2 1505.57 523.2C1520.97 523.2 1533.97 525.8 1544.57 531C1555.17 536.2 1563.17 543.6 1568.57 553.2C1573.97 562.6 1576.67 573.5 1576.67 585.9C1576.67 597.1 1574.87 606.8 1571.27 615C1567.67 623 1561.67 630.5 1553.27 637.5C1545.07 644.3 1533.87 651.5 1519.67 659.1C1507.67 665.5 1497.87 671.6 1490.27 677.4C1482.87 683 1477.37 688.3 1473.77 693.3C1470.17 698.1 1468.17 702.6 1467.77 706.8H1576.97V741H1424.57ZM1820.33 680.1V625.8L1893.53 528H1937.93L1820.33 680.1ZM1786.13 741V528H1823.33V741H1786.13ZM1897.73 741L1836.53 639L1861.73 614.7L1939.73 741H1897.73ZM2055.41 744.6C2044.21 744.6 2034.41 742 2026.01 736.8C2017.81 731.4 2011.51 724.5 2007.11 716.1L2006.21 741H1972.61V528H2008.01V603.3C2012.01 596.1 2018.11 590 2026.31 585C2034.71 579.8 2044.41 577.2 2055.41 577.2C2068.81 577.2 2080.41 580.6 2090.21 587.4C2100.01 594 2107.51 603.6 2112.71 616.2C2118.11 628.6 2120.81 643.5 2120.81 660.9C2120.81 678.3 2118.11 693.3 2112.71 705.9C2107.51 718.3 2100.01 727.9 2090.21 734.7C2080.41 741.3 2068.81 744.6 2055.41 744.6ZM2047.01 712.8C2058.81 712.8 2067.91 708.3 2074.31 699.3C2080.71 690.1 2083.91 677.3 2083.91 660.9C2083.91 644.5 2080.71 631.8 2074.31 622.8C2067.91 613.6 2059.01 609 2047.61 609C2039.41 609 2032.31 611.1 2026.31 615.3C2020.51 619.3 2016.01 625.2 2012.81 633C2009.61 640.6 2008.01 649.9 2008.01 660.9C2008.01 671.7 2009.61 681 2012.81 688.8C2016.21 696.4 2020.81 702.3 2026.61 706.5C2032.41 710.7 2039.21 712.8 2047.01 712.8ZM2158.5 774L2248.5 516H2282.1L2192.1 774H2158.5ZM2402.28 744.6C2387.28 744.6 2374.68 742.2 2364.48 737.4C2354.28 732.6 2346.38 726.1 2340.78 717.9C2335.18 709.7 2331.98 700.6 2331.18 690.6L2366.58 689.1C2368.18 696.7 2371.88 702.8 2377.68 707.4C2383.48 711.8 2391.78 714 2402.58 714C2412.58 714 2420.08 712.7 2425.08 710.1C2430.28 707.3 2432.88 703.2 2432.88 697.8C2432.88 694.4 2431.98 691.5 2430.18 689.1C2428.58 686.7 2425.28 684.7 2420.28 683.1C2415.28 681.3 2407.88 679.4 2398.08 677.4C2382.08 674.2 2369.48 670.5 2360.28 666.3C2351.08 662.1 2344.48 656.8 2340.48 650.4C2336.68 644 2334.78 636.2 2334.78 627C2334.78 617.6 2337.18 609.2 2341.98 601.8C2346.78 594.2 2353.88 588.2 2363.28 583.8C2372.88 579.4 2384.68 577.2 2398.68 577.2C2413.88 577.2 2426.28 579.7 2435.88 584.7C2445.48 589.7 2452.78 596.2 2457.78 604.2C2462.98 612.2 2466.18 620.8 2467.38 630L2431.68 631.8C2430.68 627.2 2428.78 623.1 2425.98 619.5C2423.18 615.9 2419.48 613.1 2414.88 611.1C2410.28 608.9 2404.98 607.8 2398.98 607.8C2389.18 607.8 2382.08 609.7 2377.68 613.5C2373.28 617.3 2371.08 621.8 2371.08 627C2371.08 631.2 2372.18 634.7 2374.38 637.5C2376.78 640.1 2380.68 642.3 2386.08 644.1C2391.48 645.9 2398.98 647.7 2408.58 649.5C2424.38 652.5 2436.68 656 2445.48 660C2454.28 664 2460.38 669 2463.78 675C2467.38 681 2469.18 688.5 2469.18 697.5C2469.18 707.3 2466.48 715.7 2461.08 722.7C2455.68 729.7 2447.98 735.1 2437.98 738.9C2427.98 742.7 2416.08 744.6 2402.28 744.6Z" fill="white"/>
<path d="M1129.6 741V595.2H1076.2V564H1101.4C1109.4 564 1115.8 562.9 1120.6 560.7C1125.6 558.3 1129.2 554.5 1131.4 549.3C1133.8 543.9 1135 536.8 1135 528H1166.8V741H1129.6ZM1066.6 741V706.8H1215.4V741H1066.6ZM1298.98 741V698.7H1342.78V741H1298.98ZM1424.57 741C1424.57 724.4 1426.87 709.8 1431.47 697.2C1436.07 684.4 1444.07 672.6 1455.47 661.8C1466.87 650.8 1482.77 640 1503.17 629.4C1511.17 625.2 1517.77 621.2 1522.97 617.4C1528.17 613.6 1532.07 609.4 1534.67 604.8C1537.27 600.2 1538.57 594.5 1538.57 587.7C1538.57 581.5 1537.27 576.1 1534.67 571.5C1532.27 566.9 1528.57 563.3 1523.57 560.7C1518.57 558.1 1512.37 556.8 1504.97 556.8C1492.77 556.8 1483.37 560.1 1476.77 566.7C1470.17 573.3 1465.97 582.8 1464.17 595.2L1425.47 593.1C1427.67 571.7 1435.57 554.7 1449.17 542.1C1462.77 529.5 1481.57 523.2 1505.57 523.2C1520.97 523.2 1533.97 525.8 1544.57 531C1555.17 536.2 1563.17 543.6 1568.57 553.2C1573.97 562.6 1576.67 573.5 1576.67 585.9C1576.67 597.1 1574.87 606.8 1571.27 615C1567.67 623 1561.67 630.5 1553.27 637.5C1545.07 644.3 1533.87 651.5 1519.67 659.1C1507.67 665.5 1497.87 671.6 1490.27 677.4C1482.87 683 1477.37 688.3 1473.77 693.3C1470.17 698.1 1468.17 702.6 1467.77 706.8H1576.97V741H1424.57ZM1820.33 680.1V625.8L1893.53 528H1937.93L1820.33 680.1ZM1786.13 741V528H1823.33V741H1786.13ZM1897.73 741L1836.53 639L1861.73 614.7L1939.73 741H1897.73ZM2055.41 744.6C2044.21 744.6 2034.41 742 2026.01 736.8C2017.81 731.4 2011.51 724.5 2007.11 716.1L2006.21 741H1972.61V528H2008.01V603.3C2012.01 596.1 2018.11 590 2026.31 585C2034.71 579.8 2044.41 577.2 2055.41 577.2C2068.81 577.2 2080.41 580.6 2090.21 587.4C2100.01 594 2107.51 603.6 2112.71 616.2C2118.11 628.6 2120.81 643.5 2120.81 660.9C2120.81 678.3 2118.11 693.3 2112.71 705.9C2107.51 718.3 2100.01 727.9 2090.21 734.7C2080.41 741.3 2068.81 744.6 2055.41 744.6ZM2047.01 712.8C2058.81 712.8 2067.91 708.3 2074.31 699.3C2080.71 690.1 2083.91 677.3 2083.91 660.9C2083.91 644.5 2080.71 631.8 2074.31 622.8C2067.91 613.6 2059.01 609 2047.61 609C2039.41 609 2032.31 611.1 2026.31 615.3C2020.51 619.3 2016.01 625.2 2012.81 633C2009.61 640.6 2008.01 649.9 2008.01 660.9C2008.01 671.7 2009.61 681 2012.81 688.8C2016.21 696.4 2020.81 702.3 2026.61 706.5C2032.41 710.7 2039.21 712.8 2047.01 712.8ZM2158.5 774L2248.5 516H2282.1L2192.1 774H2158.5ZM2402.28 744.6C2387.28 744.6 2374.68 742.2 2364.48 737.4C2354.28 732.6 2346.38 726.1 2340.78 717.9C2335.18 709.7 2331.98 700.6 2331.18 690.6L2366.58 689.1C2368.18 696.7 2371.88 702.8 2377.68 707.4C2383.48 711.8 2391.78 714 2402.58 714C2412.58 714 2420.08 712.7 2425.08 710.1C2430.28 707.3 2432.88 703.2 2432.88 697.8C2432.88 694.4 2431.98 691.5 2430.18 689.1C2428.58 686.7 2425.28 684.7 2420.28 683.1C2415.28 681.3 2407.88 679.4 2398.08 677.4C2382.08 674.2 2369.48 670.5 2360.28 666.3C2351.08 662.1 2344.48 656.8 2340.48 650.4C2336.68 644 2334.78 636.2 2334.78 627C2334.78 617.6 2337.18 609.2 2341.98 601.8C2346.78 594.2 2353.88 588.2 2363.28 583.8C2372.88 579.4 2384.68 577.2 2398.68 577.2C2413.88 577.2 2426.28 579.7 2435.88 584.7C2445.48 589.7 2452.78 596.2 2457.78 604.2C2462.98 612.2 2466.18 620.8 2467.38 630L2431.68 631.8C2430.68 627.2 2428.78 623.1 2425.98 619.5C2423.18 615.9 2419.48 613.1 2414.88 611.1C2410.28 608.9 2404.98 607.8 2398.98 607.8C2389.18 607.8 2382.08 609.7 2377.68 613.5C2373.28 617.3 2371.08 621.8 2371.08 627C2371.08 631.2 2372.18 634.7 2374.38 637.5C2376.78 640.1 2380.68 642.3 2386.08 644.1C2391.48 645.9 2398.98 647.7 2408.58 649.5C2424.38 652.5 2436.68 656 2445.48 660C2454.28 664 2460.38 669 2463.78 675C2467.38 681 2469.18 688.5 2469.18 697.5C2469.18 707.3 2466.48 715.7 2461.08 722.7C2455.68 729.7 2447.98 735.1 2437.98 738.9C2427.98 742.7 2416.08 744.6 2402.28 744.6Z" fill="white"/>
<path d="M1129.6 1468V1322.2H1076.2V1291H1101.4C1109.4 1291 1115.8 1289.9 1120.6 1287.7C1125.6 1285.3 1129.2 1281.5 1131.4 1276.3C1133.8 1270.9 1135 1263.8 1135 1255H1166.8V1468H1129.6ZM1066.6 1468V1433.8H1215.4V1468H1066.6ZM1298.98 1468V1425.7H1342.78V1468H1298.98ZM1424.57 1468C1424.57 1451.4 1426.87 1436.8 1431.47 1424.2C1436.07 1411.4 1444.07 1399.6 1455.47 1388.8C1466.87 1377.8 1482.77 1367 1503.17 1356.4C1511.17 1352.2 1517.77 1348.2 1522.97 1344.4C1528.17 1340.6 1532.07 1336.4 1534.67 1331.8C1537.27 1327.2 1538.57 1321.5 1538.57 1314.7C1538.57 1308.5 1537.27 1303.1 1534.67 1298.5C1532.27 1293.9 1528.57 1290.3 1523.57 1287.7C1518.57 1285.1 1512.37 1283.8 1504.97 1283.8C1492.77 1283.8 1483.37 1287.1 1476.77 1293.7C1470.17 1300.3 1465.97 1309.8 1464.17 1322.2L1425.47 1320.1C1427.67 1298.7 1435.57 1281.7 1449.17 1269.1C1462.77 1256.5 1481.57 1250.2 1505.57 1250.2C1520.97 1250.2 1533.97 1252.8 1544.57 1258C1555.17 1263.2 1563.17 1270.6 1568.57 1280.2C1573.97 1289.6 1576.67 1300.5 1576.67 1312.9C1576.67 1324.1 1574.87 1333.8 1571.27 1342C1567.67 1350 1561.67 1357.5 1553.27 1364.5C1545.07 1371.3 1533.87 1378.5 1519.67 1386.1C1507.67 1392.5 1497.87 1398.6 1490.27 1404.4C1482.87 1410 1477.37 1415.3 1473.77 1420.3C1470.17 1425.1 1468.17 1429.6 1467.77 1433.8H1576.97V1468H1424.57ZM1848.23 1440.4L1814.63 1300.6L1819.13 1300V1468H1784.33V1255H1829.33L1866.23 1403.2H1854.83L1891.73 1255H1936.73V1468H1901.93V1300L1906.43 1300.6L1872.83 1440.4H1848.23ZM2055.41 1471.6C2044.21 1471.6 2034.41 1469 2026.01 1463.8C2017.81 1458.4 2011.51 1451.5 2007.11 1443.1L2006.21 1468H1972.61V1255H2008.01V1330.3C2012.01 1323.1 2018.11 1317 2026.31 1312C2034.71 1306.8 2044.41 1304.2 2055.41 1304.2C2068.81 1304.2 2080.41 1307.6 2090.21 1314.4C2100.01 1321 2107.51 1330.6 2112.71 1343.2C2118.11 1355.6 2120.81 1370.5 2120.81 1387.9C2120.81 1405.3 2118.11 1420.3 2112.71 1432.9C2107.51 1445.3 2100.01 1454.9 2090.21 1461.7C2080.41 1468.3 2068.81 1471.6 2055.41 1471.6ZM2047.01 1439.8C2058.81 1439.8 2067.91 1435.3 2074.31 1426.3C2080.71 1417.1 2083.91 1404.3 2083.91 1387.9C2083.91 1371.5 2080.71 1358.8 2074.31 1349.8C2067.91 1340.6 2059.01 1336 2047.61 1336C2039.41 1336 2032.31 1338.1 2026.31 1342.3C2020.51 1346.3 2016.01 1352.2 2012.81 1360C2009.61 1367.6 2008.01 1376.9 2008.01 1387.9C2008.01 1398.7 2009.61 1408 2012.81 1415.8C2016.21 1423.4 2020.81 1429.3 2026.61 1433.5C2032.41 1437.7 2039.21 1439.8 2047.01 1439.8ZM2158.5 1501L2248.5 1243H2282.1L2192.1 1501H2158.5ZM2402.28 1471.6C2387.28 1471.6 2374.68 1469.2 2364.48 1464.4C2354.28 1459.6 2346.38 1453.1 2340.78 1444.9C2335.18 1436.7 2331.98 1427.6 2331.18 1417.6L2366.58 1416.1C2368.18 1423.7 2371.88 1429.8 2377.68 1434.4C2383.48 1438.8 2391.78 1441 2402.58 1441C2412.58 1441 2420.08 1439.7 2425.08 1437.1C2430.28 1434.3 2432.88 1430.2 2432.88 1424.8C2432.88 1421.4 2431.98 1418.5 2430.18 1416.1C2428.58 1413.7 2425.28 1411.7 2420.28 1410.1C2415.28 1408.3 2407.88 1406.4 2398.08 1404.4C2382.08 1401.2 2369.48 1397.5 2360.28 1393.3C2351.08 1389.1 2344.48 1383.8 2340.48 1377.4C2336.68 1371 2334.78 1363.2 2334.78 1354C2334.78 1344.6 2337.18 1336.2 2341.98 1328.8C2346.78 1321.2 2353.88 1315.2 2363.28 1310.8C2372.88 1306.4 2384.68 1304.2 2398.68 1304.2C2413.88 1304.2 2426.28 1306.7 2435.88 1311.7C2445.48 1316.7 2452.78 1323.2 2457.78 1331.2C2462.98 1339.2 2466.18 1347.8 2467.38 1357L2431.68 1358.8C2430.68 1354.2 2428.78 1350.1 2425.98 1346.5C2423.18 1342.9 2419.48 1340.1 2414.88 1338.1C2410.28 1335.9 2404.98 1334.8 2398.98 1334.8C2389.18 1334.8 2382.08 1336.7 2377.68 1340.5C2373.28 1344.3 2371.08 1348.8 2371.08 1354C2371.08 1358.2 2372.18 1361.7 2374.38 1364.5C2376.78 1367.1 2380.68 1369.3 2386.08 1371.1C2391.48 1372.9 2398.98 1374.7 2408.58 1376.5C2424.38 1379.5 2436.68 1383 2445.48 1387C2454.28 1391 2460.38 1396 2463.78 1402C2467.38 1408 2469.18 1415.5 2469.18 1424.5C2469.18 1434.3 2466.48 1442.7 2461.08 1449.7C2455.68 1456.7 2447.98 1462.1 2437.98 1465.9C2427.98 1469.7 2416.08 1471.6 2402.28 1471.6Z" fill="white"/>
<path d="M304.5 1248.5C304.5 1238.54 308.455 1229.02 315.486 1221.99C330.135 1207.34 353.865 1207.34 368.514 1221.99L567 1420.47L765.486 1221.99C780.135 1207.34 803.865 1207.34 818.514 1221.99C825.545 1229.02 829.5 1238.54 829.5 1248.5C829.5 1258.46 825.545 1267.98 818.514 1275.01L593.514 1500.01C578.865 1514.66 555.135 1514.66 540.486 1500.01L315.486 1275.01C308.455 1267.98 304.5 1258.46 304.5 1248.5Z" fill="#2ECC71"/>
<path d="M829.5 746.5C829.5 756.461 825.545 765.982 818.514 773.014C803.865 787.662 780.135 787.662 765.486 773.014L567 574.527L368.514 773.014C353.865 787.662 330.135 787.662 315.486 773.014C308.455 765.982 304.5 756.461 304.5 746.5C304.5 736.539 308.455 727.018 315.486 719.986L540.486 494.986C555.135 480.338 578.865 480.338 593.514 494.986L818.514 719.986C825.545 727.018 829.5 736.539 829.5 746.5Z" fill="#E74C3C"/>
</svg>
