<svg width="3000" height="2000" viewBox="0 0 3000 2000" fill="none" xmlns="http://www.w3.org/2000/svg">
<g clip-path="url(#clip0_29_40)">
<rect width="3000" height="2000" rx="120" fill="#1A1B26"/>
<path d="M900.5 884V631H809.5V586.5H854.5C867.5 586.5 878 584.667 886 581C894 577 899.833 570.833 903.5 562.5C907.167 554.167 909 543 909 529H953V884H900.5ZM792 884V834.5H1036V884H792ZM1179.8 884V818H1247.8V884H1179.8ZM1179.8 694.5V628.5H1247.8V694.5H1179.8ZM1500.11 884V631H1409.11V586.5H1454.11C1467.11 586.5 1477.61 584.667 1485.61 581C1493.61 577 1499.44 570.833 1503.11 562.5C1506.78 554.167 1508.61 543 1508.61 529H1552.61V884H1500.11ZM1391.61 884V834.5H1635.61V884H1391.61ZM1813.41 892C1789.08 892 1767.25 888 1747.91 880C1728.91 872 1713.91 860.167 1702.91 844.5C1691.91 828.833 1686.41 809.5 1686.41 786.5C1686.41 760.833 1694.08 739.5 1709.41 722.5C1725.08 705.5 1745.91 694.167 1771.91 688.5L1772.91 698.5C1751.91 693.167 1734.91 684 1721.91 671C1708.91 658 1702.41 640.5 1702.41 618.5C1702.41 599.833 1707.08 583.167 1716.41 568.5C1726.08 553.833 1739.25 542.333 1755.91 534C1772.58 525.333 1791.75 521 1813.41 521C1835.08 521 1854.25 525.333 1870.91 534C1887.91 542.333 1901.08 553.833 1910.41 568.5C1919.75 583.167 1924.41 599.833 1924.41 618.5C1924.41 640.5 1917.91 658 1904.91 671C1892.25 684 1875.25 693.167 1853.91 698.5L1854.91 688.5C1880.91 694.5 1901.58 706 1916.91 723C1932.58 739.667 1940.41 760.833 1940.41 786.5C1940.41 809.5 1934.91 828.833 1923.91 844.5C1912.91 860.167 1897.91 872 1878.91 880C1859.91 888 1838.08 892 1813.41 892ZM1813.41 843C1834.41 843 1851.75 838.167 1865.41 828.5C1879.08 818.5 1885.91 803.167 1885.91 782.5C1885.91 763.167 1879.75 747.833 1867.41 736.5C1855.41 724.833 1837.41 719 1813.41 719C1789.75 719 1771.75 724.833 1759.41 736.5C1747.08 747.833 1740.91 763.167 1740.91 782.5C1740.91 803.167 1747.75 818.5 1761.41 828.5C1775.08 838.167 1792.41 843 1813.41 843ZM1813.41 672C1830.41 672 1844.08 667.667 1854.41 659C1864.75 650.333 1869.91 637.333 1869.91 620C1869.91 604.667 1864.75 592.5 1854.41 583.5C1844.41 574.5 1830.75 570 1813.41 570C1796.08 570 1782.25 574.5 1771.91 583.5C1761.91 592.5 1756.91 604.667 1756.91 620C1756.91 637.333 1762.08 650.333 1772.41 659C1782.75 667.667 1796.41 672 1813.41 672Z" fill="white"/>
<path d="M2000.8 647L2042.4 505H2069.6L2111.2 647H2089.4L2056 526.8L2022.6 647H2000.8ZM2024 610L2030.4 590.6H2081.6L2088 610H2024ZM2167.92 629.8L2143.52 528.2L2145.72 528V647H2125.52V505H2153.52L2179.92 612.8H2171.92L2198.32 505H2226.32V647H2206.12V528L2208.32 528.2L2183.92 629.8H2167.92Z" fill="white"/>
<path d="M601.8 1235.2C591.533 1235.2 582.533 1233.13 574.8 1229C567.2 1224.87 561.133 1219.13 556.6 1211.8C552.067 1204.33 549.4 1195.67 548.6 1185.8L570.2 1184.4C571.133 1191.2 573 1196.93 575.8 1201.6C578.6 1206.27 582.267 1209.8 586.8 1212.2C591.333 1214.47 596.6 1215.6 602.6 1215.6C608.467 1215.6 613.4 1214.87 617.4 1213.4C621.4 1211.8 624.467 1209.53 626.6 1206.6C628.733 1203.67 629.8 1200.13 629.8 1196C629.8 1191.73 628.8 1188 626.8 1184.8C624.8 1181.6 621.2 1178.67 616 1176C610.8 1173.33 603.2 1170.6 593.2 1167.8C583.467 1165.13 575.533 1162.13 569.4 1158.8C563.267 1155.47 558.8 1151.33 556 1146.4C553.2 1141.47 551.8 1135.33 551.8 1128C551.8 1119.87 553.667 1112.73 557.4 1106.6C561.267 1100.33 566.733 1095.47 573.8 1092C581 1088.53 589.6 1086.8 599.6 1086.8C609.467 1086.8 617.867 1088.73 624.8 1092.6C631.867 1096.47 637.4 1101.87 641.4 1108.8C645.533 1115.6 648.067 1123.6 649 1132.8L627.4 1134C626.733 1128.53 625.2 1123.73 622.8 1119.6C620.533 1115.47 617.4 1112.27 613.4 1110C609.4 1107.6 604.6 1106.4 599 1106.4C591.133 1106.4 584.867 1108.33 580.2 1112.2C575.667 1115.93 573.4 1120.87 573.4 1127C573.4 1131.13 574.333 1134.53 576.2 1137.2C578.067 1139.87 581.333 1142.27 586 1144.4C590.667 1146.53 597.2 1148.73 605.6 1151C616.933 1154.07 625.933 1157.6 632.6 1161.6C639.267 1165.6 644.067 1170.4 647 1176C649.933 1181.6 651.4 1188.27 651.4 1196C651.4 1203.73 649.333 1210.6 645.2 1216.6C641.067 1222.47 635.267 1227.07 627.8 1230.4C620.467 1233.6 611.8 1235.2 601.8 1235.2ZM705.522 1234.4C698.855 1234.4 692.855 1233.2 687.522 1230.8C682.189 1228.4 677.922 1225 674.722 1220.6C671.655 1216.2 670.122 1211.07 670.122 1205.2C670.122 1196.13 672.855 1189.07 678.322 1184C683.922 1178.93 692.322 1175.33 703.522 1173.2L737.922 1166C737.922 1157.73 736.122 1151.53 732.522 1147.4C728.922 1143.27 723.522 1141.2 716.322 1141.2C709.655 1141.2 704.455 1142.73 700.722 1145.8C696.989 1148.87 694.455 1153.13 693.122 1158.6L671.922 1157.2C673.922 1147.07 678.789 1138.87 686.522 1132.6C694.255 1126.33 704.189 1123.2 716.322 1123.2C729.922 1123.2 740.255 1127.07 747.322 1134.8C754.522 1142.53 758.122 1153.2 758.122 1166.8V1208.8C758.122 1211.2 758.655 1212.93 759.722 1214C760.789 1214.93 762.322 1215.4 764.322 1215.4H770.322V1232C769.522 1232.13 768.189 1232.27 766.322 1232.4C764.589 1232.53 762.855 1232.6 761.122 1232.6C756.322 1232.6 752.255 1231.8 748.922 1230.2C745.589 1228.6 743.055 1226.13 741.322 1222.8C739.722 1219.33 738.789 1215 738.522 1209.8H741.722C740.922 1214.47 738.855 1218.67 735.522 1222.4C732.189 1226.13 727.922 1229.07 722.722 1231.2C717.522 1233.33 711.789 1234.4 705.522 1234.4ZM708.522 1217.8C714.922 1217.8 720.322 1216.67 724.722 1214.4C729.122 1212.13 732.389 1208.93 734.522 1204.8C736.789 1200.67 737.922 1195.8 737.922 1190.2V1182L708.322 1188C701.922 1189.2 697.455 1191.07 694.922 1193.6C692.389 1196.13 691.122 1199.47 691.122 1203.6C691.122 1208 692.655 1211.47 695.722 1214C698.789 1216.53 703.055 1217.8 708.522 1217.8ZM855.044 1232C844.244 1232 836.177 1229.53 830.844 1224.6C825.644 1219.53 823.044 1211.8 823.044 1201.4V1100.6H843.244V1200.4C843.244 1205.33 844.377 1209 846.644 1211.4C849.044 1213.8 852.577 1215 857.244 1215H884.644V1232H855.044ZM789.444 1142.6V1125.6H884.644V1142.6H789.444ZM950.566 1234.4C940.299 1234.4 932.099 1230.93 925.966 1224C919.832 1216.93 916.766 1207.07 916.766 1194.4V1125.6H936.966V1189.2C936.966 1198.8 938.632 1205.8 941.966 1210.2C945.299 1214.6 950.366 1216.8 957.166 1216.8C964.499 1216.8 970.366 1214.33 974.766 1209.4C979.299 1204.47 981.566 1197.47 981.566 1188.4V1125.6H1001.77V1232H982.766L982.566 1204.2L985.366 1205.4C983.499 1214.6 979.566 1221.73 973.566 1226.8C967.566 1231.87 959.899 1234.4 950.566 1234.4ZM1063.49 1232V1125.6H1079.49L1081.29 1152.8L1079.49 1152.6C1080.82 1143.4 1083.69 1136.6 1088.09 1132.2C1092.49 1127.8 1098.55 1125.6 1106.29 1125.6H1128.89V1143.2H1107.09C1102.02 1143.2 1097.75 1144.2 1094.29 1146.2C1090.82 1148.07 1088.15 1150.93 1086.29 1154.8C1084.55 1158.53 1083.69 1163.2 1083.69 1168.8V1232H1063.49ZM1036.49 1232V1215H1116.89V1232H1036.49ZM1036.49 1142.6V1125.6H1074.89V1142.6H1036.49ZM1191.21 1234.4C1182.14 1234.4 1174.28 1232.2 1167.61 1227.8C1160.94 1223.27 1155.81 1216.87 1152.21 1208.6C1148.61 1200.2 1146.81 1190.27 1146.81 1178.8C1146.81 1167.33 1148.61 1157.47 1152.21 1149.2C1155.81 1140.8 1160.94 1134.4 1167.61 1130C1174.28 1125.47 1182.14 1123.2 1191.21 1123.2C1198.68 1123.2 1205.21 1124.93 1210.81 1128.4C1216.41 1131.87 1220.48 1135.93 1223.01 1140.6V1090H1243.21V1232H1224.41L1223.81 1215.6C1220.88 1221.33 1216.61 1225.93 1211.01 1229.4C1205.41 1232.73 1198.81 1234.4 1191.21 1234.4ZM1194.61 1215.8C1200.48 1215.8 1205.48 1214.33 1209.61 1211.4C1213.88 1208.33 1217.14 1204.07 1219.41 1198.6C1221.81 1193 1223.01 1186.4 1223.01 1178.8C1223.01 1170.93 1221.81 1164.27 1219.41 1158.8C1217.14 1153.33 1213.88 1149.13 1209.61 1146.2C1205.34 1143.27 1200.21 1141.8 1194.21 1141.8C1186.08 1141.8 1179.68 1145.07 1175.01 1151.6C1170.34 1158.13 1168.01 1167.2 1168.01 1178.8C1168.01 1190.27 1170.34 1199.33 1175.01 1206C1179.68 1212.53 1186.21 1215.8 1194.61 1215.8ZM1305.13 1234.4C1298.46 1234.4 1292.46 1233.2 1287.13 1230.8C1281.8 1228.4 1277.53 1225 1274.33 1220.6C1271.26 1216.2 1269.73 1211.07 1269.73 1205.2C1269.73 1196.13 1272.46 1189.07 1277.93 1184C1283.53 1178.93 1291.93 1175.33 1303.13 1173.2L1337.53 1166C1337.53 1157.73 1335.73 1151.53 1332.13 1147.4C1328.53 1143.27 1323.13 1141.2 1315.93 1141.2C1309.26 1141.2 1304.06 1142.73 1300.33 1145.8C1296.6 1148.87 1294.06 1153.13 1292.73 1158.6L1271.53 1157.2C1273.53 1147.07 1278.4 1138.87 1286.13 1132.6C1293.86 1126.33 1303.8 1123.2 1315.93 1123.2C1329.53 1123.2 1339.86 1127.07 1346.93 1134.8C1354.13 1142.53 1357.73 1153.2 1357.73 1166.8V1208.8C1357.73 1211.2 1358.26 1212.93 1359.33 1214C1360.4 1214.93 1361.93 1215.4 1363.93 1215.4H1369.93V1232C1369.13 1232.13 1367.8 1232.27 1365.93 1232.4C1364.2 1232.53 1362.46 1232.6 1360.73 1232.6C1355.93 1232.6 1351.86 1231.8 1348.53 1230.2C1345.2 1228.6 1342.66 1226.13 1340.93 1222.8C1339.33 1219.33 1338.4 1215 1338.13 1209.8H1341.33C1340.53 1214.47 1338.46 1218.67 1335.13 1222.4C1331.8 1226.13 1327.53 1229.07 1322.33 1231.2C1317.13 1233.33 1311.4 1234.4 1305.13 1234.4ZM1308.13 1217.8C1314.53 1217.8 1319.93 1216.67 1324.33 1214.4C1328.73 1212.13 1332 1208.93 1334.13 1204.8C1336.4 1200.67 1337.53 1195.8 1337.53 1190.2V1182L1307.93 1188C1301.53 1189.2 1297.06 1191.07 1294.53 1193.6C1292 1196.13 1290.73 1199.47 1290.73 1203.6C1290.73 1208 1292.26 1211.47 1295.33 1214C1298.4 1216.53 1302.66 1217.8 1308.13 1217.8ZM1405.45 1262V1245H1418.45C1422.19 1245 1424.92 1244.4 1426.65 1243.2C1428.52 1242.13 1429.92 1240.33 1430.85 1237.8L1434.45 1228.4H1427.65L1388.85 1125.6H1410.65L1440.85 1209.4L1469.05 1125.6H1490.65L1448.25 1244C1446.12 1250.4 1442.79 1255 1438.25 1257.8C1433.85 1260.6 1427.92 1262 1420.45 1262H1405.45ZM1548.18 1263.2L1557.78 1232H1546.18V1205.6H1572.58V1229.2L1559.78 1263.2H1548.18ZM1794.22 1235.2C1784.75 1235.2 1776.49 1233.2 1769.42 1229.2C1762.49 1225.07 1757.02 1219.2 1753.02 1211.6C1749.15 1204 1747.09 1195 1746.82 1184.6L1767.62 1183C1767.89 1194.07 1770.22 1202.27 1774.62 1207.6C1779.02 1212.93 1785.62 1215.6 1794.42 1215.6C1803.22 1215.6 1809.75 1213 1814.02 1207.8C1818.42 1202.47 1820.62 1194.47 1820.62 1183.8V1090H1841.62V1183.8C1841.62 1199.8 1837.42 1212.4 1829.02 1221.6C1820.62 1230.67 1809.02 1235.2 1794.22 1235.2ZM1909.94 1234.4C1899.67 1234.4 1891.47 1230.93 1885.34 1224C1879.21 1216.93 1876.14 1207.07 1876.14 1194.4V1125.6H1896.34V1189.2C1896.34 1198.8 1898.01 1205.8 1901.34 1210.2C1904.67 1214.6 1909.74 1216.8 1916.54 1216.8C1923.87 1216.8 1929.74 1214.33 1934.14 1209.4C1938.67 1204.47 1940.94 1197.47 1940.94 1188.4V1125.6H1961.14V1232H1942.14L1941.94 1204.2L1944.74 1205.4C1942.87 1214.6 1938.94 1221.73 1932.94 1226.8C1926.94 1231.87 1919.27 1234.4 1909.94 1234.4ZM2031.86 1232V1120.2C2031.86 1116.07 2030.66 1112.87 2028.26 1110.6C2026 1108.2 2022.8 1107 2018.66 1107H1994.26V1090H2020.86C2031.13 1090 2038.86 1092.67 2044.06 1098C2049.4 1103.2 2052.06 1110.93 2052.06 1121.2V1232H2031.86ZM1990.26 1232V1215H2087.86V1232H1990.26ZM2273.51 1232V1130.8H2237.11V1113H2255.11C2260.31 1113 2264.51 1112.27 2267.71 1110.8C2270.91 1109.2 2273.24 1106.73 2274.71 1103.4C2276.17 1100.07 2276.91 1095.6 2276.91 1090H2294.51V1232H2273.51ZM2230.11 1232V1212.2H2327.71V1232H2230.11ZM2398.83 1235.2C2389.09 1235.2 2380.36 1233.6 2372.63 1230.4C2365.03 1227.2 2359.03 1222.47 2354.63 1216.2C2350.23 1209.93 2348.03 1202.2 2348.03 1193C2348.03 1182.73 2351.09 1174.2 2357.23 1167.4C2363.49 1160.6 2371.83 1156.07 2382.23 1153.8L2382.63 1157.8C2374.23 1155.67 2367.43 1152 2362.23 1146.8C2357.03 1141.6 2354.43 1134.6 2354.43 1125.8C2354.43 1118.33 2356.29 1111.67 2360.03 1105.8C2363.89 1099.93 2369.16 1095.33 2375.83 1092C2382.49 1088.53 2390.16 1086.8 2398.83 1086.8C2407.49 1086.8 2415.16 1088.53 2421.83 1092C2428.63 1095.33 2433.89 1099.93 2437.63 1105.8C2441.36 1111.67 2443.23 1118.33 2443.23 1125.8C2443.23 1134.6 2440.63 1141.6 2435.43 1146.8C2430.36 1152 2423.56 1155.67 2415.03 1157.8L2415.43 1153.8C2425.83 1156.2 2434.09 1160.8 2440.23 1167.6C2446.49 1174.27 2449.63 1182.73 2449.63 1193C2449.63 1202.2 2447.43 1209.93 2443.03 1216.2C2438.63 1222.47 2432.63 1227.2 2425.03 1230.4C2417.43 1233.6 2408.69 1235.2 2398.83 1235.2ZM2398.83 1215.6C2407.23 1215.6 2414.16 1213.67 2419.63 1209.8C2425.09 1205.8 2427.83 1199.67 2427.83 1191.4C2427.83 1183.67 2425.36 1177.53 2420.43 1173C2415.63 1168.33 2408.43 1166 2398.83 1166C2389.36 1166 2382.16 1168.33 2377.23 1173C2372.29 1177.53 2369.83 1183.67 2369.83 1191.4C2369.83 1199.67 2372.56 1205.8 2378.03 1209.8C2383.49 1213.67 2390.43 1215.6 2398.83 1215.6ZM2398.83 1147.2C2405.63 1147.2 2411.09 1145.47 2415.23 1142C2419.36 1138.53 2421.43 1133.33 2421.43 1126.4C2421.43 1120.27 2419.36 1115.4 2415.23 1111.8C2411.23 1108.2 2405.76 1106.4 2398.83 1106.4C2391.89 1106.4 2386.36 1108.2 2382.23 1111.8C2378.23 1115.4 2376.23 1120.27 2376.23 1126.4C2376.23 1133.33 2378.29 1138.53 2382.43 1142C2386.56 1145.47 2392.03 1147.2 2398.83 1147.2Z" fill="white"/>
</g>
<defs>
<clipPath id="clip0_29_40">
<rect width="3000" height="2000" rx="120" fill="white"/>
</clipPath>
</defs>
</svg>
