<svg width="3000" height="3000" viewBox="0 0 3000 3000" fill="none" xmlns="http://www.w3.org/2000/svg">
<circle cx="1500" cy="1500" r="1150" fill="#D9D9D9"/>
<g clip-path="url(#clip0_44_2)">
<mask id="mask0_44_2" style="mask-type:luminance" maskUnits="userSpaceOnUse" x="500" y="500" width="2000" height="2000">
<path d="M2500 500H500V2500H2500V500Z" fill="white"/>
</mask>
<g mask="url(#mask0_44_2)">
<path d="M1500 500C1467.77 500 1436.04 512.207 1411.62 536.621L1198.24 750H875C806.153 750 750 806.153 750 875V1198.24L536.621 1411.62C487.793 1460.45 487.793 1539.55 536.621 1588.38L750 1801.76V2125C750 2193.85 806.153 2250 875 2250H1198.24L1411.62 2463.37C1460.45 2512.21 1539.55 2512.21 1588.38 2463.37L1801.76 2250H2125C2193.85 2250 2250 2193.85 2250 2125V1801.76L2463.37 1588.38C2512.21 1539.55 2512.21 1460.45 2463.37 1411.62L2250 1198.24V875C2250 806.153 2193.85 750 2125 750H1801.76L1588.38 536.621C1563.97 512.207 1532.23 500 1500 500ZM1500 1125C1532.23 1125 1563.97 1137.21 1588.38 1161.62L1838.37 1411.62C1861.32 1435.06 1874.51 1466.8 1874.02 1500H1875V1625H1625V1875H1375V1625H1125V1500H1125.98C1125.49 1466.8 1138.67 1435.06 1161.62 1411.62L1411.62 1161.62C1436.04 1137.21 1467.77 1125 1500 1125Z" fill="#2E3436"/>
</g>
</g>
<defs>
<clipPath id="clip0_44_2">
<rect width="2000" height="2000" fill="white" transform="translate(500 500)"/>
</clipPath>
</defs>
</svg>
